<svg width="702" height="408" viewBox="0 0 702 408" fill="none" xmlns="http://www.w3.org/2000/svg">
<g clip-path="url(#clip0_232_346)">
<path d="M189.713 1.81349C214.896 -5.79876 247.897 13.3767 257.925 38.72C268.089 64.1575 255.651 95.8078 248.146 125.565C240.642 155.322 238.341 183.375 220.719 202.022C202.861 220.718 169.917 229.958 144.068 220.678C118.185 211.16 99.2612 183.027 97.8688 156.239C96.4765 129.451 112.515 104.152 129.435 74.1348C146.356 44.1172 164.294 9.47508 189.713 1.81349Z" fill="#BBC4FF"/>
<path d="M482.932 52.6141C503.072 73.4641 520.244 95.9821 514.308 112.662C508.372 129.342 479.328 140.184 459.188 150.401C439.048 160.617 428.024 170.417 411.912 175.421C395.8 180.425 374.388 180.842 373.54 170.625C372.48 160.409 391.772 139.35 393.256 119.96C394.74 100.569 378.628 82.6381 379.688 61.7881C380.536 40.9381 398.768 17.1691 419.332 14.8756C439.896 12.5821 462.792 31.7641 482.932 52.6141Z" fill="#C8CFFF"/>
<path d="M701.325 407.414H1.18961C0.942852 407.413 0.706448 407.309 0.532214 407.123C0.35798 406.937 0.260132 406.685 0.260132 406.423C0.260132 406.16 0.35798 405.908 0.532214 405.722C0.706448 405.536 0.942852 405.432 1.18961 405.431H701.325C701.572 405.432 701.808 405.536 701.983 405.722C702.157 405.908 702.255 406.16 702.255 406.423C702.255 406.685 702.157 406.937 701.983 407.123C701.808 407.309 701.572 407.413 701.325 407.414Z" fill="#3F3D56"/>
<path d="M219.744 70.3444C222.54 70.3444 224.807 67.9331 224.807 64.9585C224.807 61.984 222.54 59.5726 219.744 59.5726C216.948 59.5726 214.681 61.984 214.681 64.9585C214.681 67.9331 216.948 70.3444 219.744 70.3444Z" fill="#F2F2F2"/>
<path d="M199.566 70.3444C202.362 70.3444 204.629 67.9331 204.629 64.9585C204.629 61.984 202.362 59.5726 199.566 59.5726C196.77 59.5726 194.503 61.984 194.503 64.9585C194.503 67.9331 196.77 70.3444 199.566 70.3444Z" fill="#F2F2F2"/>
<path d="M179.388 70.3444C182.184 70.3444 184.451 67.9331 184.451 64.9585C184.451 61.984 182.184 59.5726 179.388 59.5726C176.592 59.5726 174.325 61.984 174.325 64.9585C174.325 67.9331 176.592 70.3444 179.388 70.3444Z" fill="#F2F2F2"/>
<path d="M159.211 70.3444C162.007 70.3444 164.274 67.9331 164.274 64.9585C164.274 61.984 162.007 59.5726 159.211 59.5726C156.414 59.5726 154.148 61.984 154.148 64.9585C154.148 67.9331 156.414 70.3444 159.211 70.3444Z" fill="#F2F2F2"/>
<path d="M219.744 92.8313C222.54 92.8313 224.807 90.4199 224.807 87.4454C224.807 84.4708 222.54 82.0594 219.744 82.0594C216.948 82.0594 214.681 84.4708 214.681 87.4454C214.681 90.4199 216.948 92.8313 219.744 92.8313Z" fill="#F2F2F2"/>
<path d="M199.566 92.8313C202.362 92.8313 204.629 90.4199 204.629 87.4454C204.629 84.4708 202.362 82.0594 199.566 82.0594C196.77 82.0594 194.503 84.4708 194.503 87.4454C194.503 90.4199 196.77 92.8313 199.566 92.8313Z" fill="#F2F2F2"/>
<path d="M179.388 92.8313C182.184 92.8313 184.451 90.4199 184.451 87.4454C184.451 84.4708 182.184 82.0594 179.388 82.0594C176.592 82.0594 174.325 84.4708 174.325 87.4454C174.325 90.4199 176.592 92.8313 179.388 92.8313Z" fill="#F2F2F2"/>
<path d="M159.211 92.8313C162.007 92.8313 164.274 90.4199 164.274 87.4454C164.274 84.4708 162.007 82.0594 159.211 82.0594C156.414 82.0594 154.148 84.4708 154.148 87.4454C154.148 90.4199 156.414 92.8313 159.211 92.8313Z" fill="#F2F2F2"/>
<path d="M219.744 115.318C222.54 115.318 224.807 112.907 224.807 109.932C224.807 106.957 222.54 104.546 219.744 104.546C216.948 104.546 214.681 106.957 214.681 109.932C214.681 112.907 216.948 115.318 219.744 115.318Z" fill="#F2F2F2"/>
<path d="M199.566 115.318C202.362 115.318 204.629 112.907 204.629 109.932C204.629 106.957 202.362 104.546 199.566 104.546C196.77 104.546 194.503 106.957 194.503 109.932C194.503 112.907 196.77 115.318 199.566 115.318Z" fill="#F2F2F2"/>
<path d="M179.388 115.318C182.184 115.318 184.451 112.907 184.451 109.932C184.451 106.957 182.184 104.546 179.388 104.546C176.592 104.546 174.325 106.957 174.325 109.932C174.325 112.907 176.592 115.318 179.388 115.318Z" fill="#F2F2F2"/>
<path d="M159.211 115.318C162.007 115.318 164.274 112.907 164.274 109.932C164.274 106.957 162.007 104.546 159.211 104.546C156.414 104.546 154.148 106.957 154.148 109.932C154.148 112.907 156.414 115.318 159.211 115.318Z" fill="#F2F2F2"/>
<path d="M219.744 137.805C222.54 137.805 224.807 135.393 224.807 132.419C224.807 129.444 222.54 127.033 219.744 127.033C216.948 127.033 214.681 129.444 214.681 132.419C214.681 135.393 216.948 137.805 219.744 137.805Z" fill="#F2F2F2"/>
<path d="M199.566 137.805C202.362 137.805 204.629 135.393 204.629 132.419C204.629 129.444 202.362 127.033 199.566 127.033C196.77 127.033 194.503 129.444 194.503 132.419C194.503 135.393 196.77 137.805 199.566 137.805Z" fill="#F2F2F2"/>
<path d="M179.388 137.805C182.184 137.805 184.451 135.393 184.451 132.419C184.451 129.444 182.184 127.033 179.388 127.033C176.592 127.033 174.325 129.444 174.325 132.419C174.325 135.393 176.592 137.805 179.388 137.805Z" fill="#F2F2F2"/>
<path d="M159.211 137.805C162.007 137.805 164.274 135.393 164.274 132.419C164.274 129.444 162.007 127.033 159.211 127.033C156.414 127.033 154.148 129.444 154.148 132.419C154.148 135.393 156.414 137.805 159.211 137.805Z" fill="#F2F2F2"/>
<path d="M219.744 160.292C222.54 160.292 224.807 157.88 224.807 154.906C224.807 151.931 222.54 149.52 219.744 149.52C216.948 149.52 214.681 151.931 214.681 154.906C214.681 157.88 216.948 160.292 219.744 160.292Z" fill="#F2F2F2"/>
<path d="M199.566 160.292C202.362 160.292 204.629 157.88 204.629 154.906C204.629 151.931 202.362 149.52 199.566 149.52C196.77 149.52 194.503 151.931 194.503 154.906C194.503 157.88 196.77 160.292 199.566 160.292Z" fill="#F2F2F2"/>
<path d="M179.388 160.292C182.184 160.292 184.451 157.88 184.451 154.906C184.451 151.931 182.184 149.52 179.388 149.52C176.592 149.52 174.325 151.931 174.325 154.906C174.325 157.88 176.592 160.292 179.388 160.292Z" fill="#F2F2F2"/>
<path d="M159.211 160.292C162.007 160.292 164.274 157.88 164.274 154.906C164.274 151.931 162.007 149.52 159.211 149.52C156.414 149.52 154.148 151.931 154.148 154.906C154.148 157.88 156.414 160.292 159.211 160.292Z" fill="#F2F2F2"/>
<path d="M219.744 182.778C222.54 182.778 224.807 180.367 224.807 177.392C224.807 174.418 222.54 172.007 219.744 172.007C216.948 172.007 214.681 174.418 214.681 177.392C214.681 180.367 216.948 182.778 219.744 182.778Z" fill="#F2F2F2"/>
<path d="M199.566 182.778C202.362 182.778 204.629 180.367 204.629 177.392C204.629 174.418 202.362 172.007 199.566 172.007C196.77 172.007 194.503 174.418 194.503 177.392C194.503 180.367 196.77 182.778 199.566 182.778Z" fill="#F2F2F2"/>
<path d="M179.388 182.778C182.184 182.778 184.451 180.367 184.451 177.392C184.451 174.418 182.184 172.007 179.388 172.007C176.592 172.007 174.325 174.418 174.325 177.392C174.325 180.367 176.592 182.778 179.388 182.778Z" fill="#F2F2F2"/>
<path d="M159.211 182.778C162.007 182.778 164.274 180.367 164.274 177.392C164.274 174.418 162.007 172.007 159.211 172.007C156.414 172.007 154.148 174.418 154.148 177.392C154.148 180.367 156.414 182.778 159.211 182.778Z" fill="#F2F2F2"/>
<path d="M175.256 324.322V325.988C175.258 328.748 176.29 331.395 178.125 333.347C179.959 335.299 182.447 336.396 185.042 336.399H255.502C258.097 336.398 260.586 335.301 262.421 333.348C264.256 331.396 265.287 328.749 265.288 325.988V324.322C265.293 321.886 264.489 319.526 263.018 317.66C262.528 317.04 261.974 316.481 261.366 315.994C261.366 315.994 222.628 315.061 222.628 313.912H185.042C182.448 313.916 179.961 315.014 178.126 316.965C176.292 318.917 175.259 321.563 175.256 324.322V324.322Z" fill="#CCCCCC"/>
<path d="M225.927 335.985H215.75V405.944H225.927V335.985Z" fill="#CCCCCC"/>
<path d="M254.894 405.564C254.894 406.733 239.472 406.016 220.447 406.016C201.422 406.016 186 406.733 186 405.564C186 404.394 201.422 395.117 220.447 395.117C239.472 395.117 254.894 404.394 254.894 405.564Z" fill="#CCCCCC"/>
<path d="M240.902 322.909C241.636 321.861 242.146 320.653 242.395 319.372C242.643 318.091 242.625 316.768 242.341 315.495C242.057 314.223 241.514 313.032 240.75 312.007C239.986 310.982 239.021 310.147 237.921 309.562L216.35 231.37L199.924 239.928L226.293 314.097C225.491 316.127 225.417 318.4 226.085 320.484C226.754 322.569 228.117 324.32 229.918 325.406C231.719 326.492 233.831 326.838 235.856 326.378C237.88 325.918 239.676 324.684 240.902 322.909L240.902 322.909Z" fill="#A0616A"/>
<path d="M221.237 244.428L202.853 249.722C202.33 249.873 201.782 249.902 201.248 249.807C200.713 249.713 200.204 249.496 199.755 249.173C199.306 248.851 198.928 248.429 198.646 247.936C198.364 247.444 198.186 246.892 198.122 246.32L195.9 226.259C195.191 223.407 195.574 220.373 196.964 217.822C198.355 215.27 200.64 213.409 203.318 212.646C205.996 211.884 208.849 212.283 211.252 213.755C213.655 215.227 215.41 217.652 216.134 220.499L223.708 238.952C223.925 239.48 224.032 240.052 224.022 240.628C224.012 241.205 223.886 241.772 223.651 242.292C223.417 242.812 223.08 243.271 222.663 243.64C222.247 244.009 221.76 244.278 221.237 244.428H221.237Z" fill="#6C63FF"/>
<path d="M245.707 397.364L255.305 397.363L259.872 370.882H245.705L245.707 397.364Z" fill="#A0616A"/>
<path d="M243.258 394.03L262.16 394.029H262.161C263.743 394.029 265.309 394.361 266.771 395.005C268.232 395.649 269.56 396.592 270.679 397.782C271.797 398.972 272.685 400.385 273.29 401.94C273.895 403.494 274.207 405.161 274.207 406.844V407.26L243.259 407.261L243.258 394.03Z" fill="#2F2E41"/>
<path d="M256.847 383.163C256.736 383.163 256.623 383.157 256.511 383.146L243.228 382.117C242.691 382.064 242.172 381.88 241.712 381.58C241.252 381.281 240.863 380.872 240.575 380.387C240.287 379.902 240.107 379.353 240.05 378.782C239.993 378.211 240.06 377.634 240.245 377.096L258.022 334.608C258.149 334.23 258.201 333.827 258.175 333.426C258.148 333.025 258.044 332.634 257.868 332.277C257.694 331.917 257.449 331.6 257.15 331.347C256.852 331.095 256.507 330.912 256.137 330.812C247.778 328.487 226.331 322.298 207.765 315.056C199.811 311.953 194.802 307.469 192.876 301.729C190.337 294.161 194.093 287.259 194.254 286.97L194.38 286.743L211.85 288.432L230.789 290.146L272.293 313.821C275.77 315.822 278.412 319.143 279.692 323.123C280.971 327.102 280.794 331.448 279.197 335.296L260.062 380.942C259.785 381.603 259.334 382.164 258.764 382.559C258.193 382.953 257.528 383.163 256.847 383.163V383.163Z" fill="#2F2E41"/>
<path d="M214.888 204.374C225.507 204.374 234.116 195.216 234.116 183.918C234.116 172.621 225.507 163.463 214.888 163.463C204.268 163.463 195.659 172.621 195.659 183.918C195.659 195.216 204.268 204.374 214.888 204.374Z" fill="#A0616A"/>
<path d="M240.226 396.531L249.825 396.53L254.391 370.049H240.225L240.226 396.531Z" fill="#A0616A"/>
<path d="M237.778 393.197L256.68 393.196H256.681C258.263 393.196 259.829 393.528 261.291 394.172C262.752 394.816 264.08 395.759 265.199 396.949C266.317 398.139 267.204 399.552 267.81 401.107C268.415 402.661 268.727 404.328 268.727 406.011V406.427L237.779 406.428L237.778 393.197Z" fill="#2F2E41"/>
<path d="M251.367 385.662C251.255 385.662 251.143 385.656 251.03 385.645L237.747 384.616C237.21 384.563 236.692 384.379 236.232 384.079C235.772 383.779 235.383 383.371 235.095 382.886C234.806 382.401 234.627 381.851 234.57 381.281C234.513 380.71 234.579 380.133 234.765 379.594L252.542 337.107C252.669 336.728 252.721 336.326 252.694 335.924C252.668 335.523 252.564 335.132 252.388 334.776C252.213 334.416 251.969 334.099 251.67 333.846C251.372 333.593 251.027 333.411 250.657 333.31C242.298 330.986 220.851 324.797 202.285 317.555C194.331 314.452 189.321 309.968 187.395 304.228C184.856 296.66 188.613 289.758 188.774 289.468L188.9 289.241L206.37 290.93L225.309 292.644L266.812 316.32C270.29 318.321 272.932 321.642 274.211 325.621C275.491 329.601 275.314 333.947 273.716 337.794L254.582 383.44C254.305 384.101 253.854 384.663 253.284 385.057C252.713 385.451 252.047 385.661 251.367 385.662V385.662Z" fill="#2F2E41"/>
<path d="M220.818 215.973L200.463 208.477C200.463 208.477 187.684 218.921 193.823 244.83C197.028 258.2 196.094 272.312 191.161 285.073C190.567 286.652 189.882 288.19 189.111 289.68C189.111 289.68 211.815 318.829 232.953 297.175L224.732 255.117C224.732 255.117 237.65 227.216 220.818 215.973Z" fill="#2F2E41"/>
<path d="M217.275 205.07C214.538 200.712 212.378 194.669 215.392 190.523C218.366 186.43 224.232 187.033 228.787 185.222C235.132 182.7 238.811 174.771 237.664 167.67C236.516 160.569 231.158 154.682 224.774 152.273C218.391 149.865 211.192 150.648 204.941 153.422C197.246 156.836 190.645 163.441 187.877 171.808C185.109 180.175 186.588 190.22 192.331 196.651C198.487 203.546 208.15 205.383 217.088 205.272" fill="#2F2E41"/>
<path d="M199.388 167.897C195.94 170.884 190.678 169.557 186.977 166.936C183.275 164.315 180.271 160.583 176.266 158.528C169.205 154.905 160.668 157.314 153.796 161.327C146.923 165.34 140.831 170.884 133.572 174.033C126.313 177.182 117.05 177.338 111.554 171.391C110.201 175.56 110.091 180.072 111.237 184.31C112.384 188.549 114.732 192.308 117.96 195.074C121.189 197.84 125.142 199.48 129.279 199.768C133.416 200.057 137.536 198.98 141.077 196.686C149.03 191.532 153.424 180.726 162.345 177.881C167.281 176.307 172.582 177.575 177.571 178.948C182.561 180.321 187.763 181.805 192.798 180.636C197.833 179.467 202.542 174.653 201.902 169.214L199.388 167.897Z" fill="#2F2E41"/>
<path d="M261.983 360.64C259.947 346.571 259.947 332.254 261.983 318.186C262.112 317.348 262.517 316.587 263.124 316.037C263.732 315.487 264.503 315.184 265.3 315.183H296.516C297.022 315.181 297.522 315.302 297.977 315.537C298.432 315.771 298.831 316.114 299.143 316.537C299.462 316.966 299.685 317.467 299.795 318.002C299.904 318.537 299.898 319.091 299.775 319.622C296.855 332.633 296.855 346.193 299.775 359.203C299.897 359.735 299.904 360.289 299.795 360.824C299.685 361.358 299.462 361.859 299.143 362.289C298.831 362.712 298.432 363.054 297.977 363.289C297.522 363.524 297.022 363.645 296.516 363.643H265.3C264.503 363.641 263.732 363.339 263.124 362.789C262.517 362.239 262.112 361.477 261.983 360.64V360.64Z" fill="#6C63FF"/>
<path d="M286.91 335.734H270.529C269.907 335.734 269.31 335.47 268.869 335.002C268.429 334.533 268.181 333.898 268.181 333.236V332.26C268.181 331.597 268.429 330.962 268.869 330.494C269.31 330.025 269.907 329.762 270.529 329.761H286.91C287.533 329.762 288.13 330.025 288.57 330.494C289.011 330.962 289.258 331.597 289.259 332.26V333.236C289.258 333.898 289.011 334.533 288.57 335.002C288.13 335.47 287.533 335.734 286.91 335.734Z" fill="white"/>
<path d="M286.91 346.015H270.529C269.907 346.015 269.31 345.751 268.869 345.283C268.429 344.814 268.181 344.179 268.181 343.517V342.54C268.181 341.878 268.429 341.243 268.869 340.775C269.31 340.306 269.907 340.043 270.529 340.042H286.91C287.533 340.043 288.13 340.306 288.57 340.775C289.011 341.243 289.258 341.878 289.259 342.54V343.517C289.258 344.179 289.011 344.814 288.57 345.283C288.13 345.751 287.533 346.015 286.91 346.015Z" fill="white"/>
<path d="M270.192 319.162C270.657 317.952 270.867 316.647 270.807 315.341C270.747 314.034 270.418 312.758 269.844 311.601C269.27 310.444 268.465 309.436 267.485 308.646C266.504 307.856 265.373 307.305 264.171 307.03L224.921 237.051L211.026 249.704L253.977 314.512C253.678 316.691 254.14 318.911 255.276 320.752C256.413 322.593 258.144 323.926 260.143 324.499C262.142 325.072 264.269 324.846 266.121 323.862C267.973 322.878 269.422 321.206 270.192 319.162L270.192 319.162Z" fill="#A0616A"/>
<path d="M232.719 248.396L216.161 258.409C215.69 258.694 215.167 258.867 214.627 258.918C214.087 258.968 213.544 258.894 213.033 258.701C212.523 258.507 212.057 258.199 211.669 257.797C211.28 257.395 210.978 256.909 210.782 256.372L203.919 237.537C202.563 234.965 202.221 231.925 202.968 229.085C203.715 226.245 205.49 223.835 207.905 222.385C210.319 220.935 213.175 220.563 215.847 221.35C218.519 222.137 220.789 224.018 222.159 226.583L233.826 242.437C234.16 242.891 234.398 243.416 234.524 243.977C234.65 244.538 234.66 245.121 234.555 245.686C234.45 246.252 234.232 246.787 233.915 247.254C233.598 247.722 233.19 248.112 232.719 248.396V248.396Z" fill="#2F2E41"/>
<path d="M408.901 272.977H91.0473C89.6977 272.977 88.4033 273.548 87.449 274.563C86.4946 275.578 85.9585 276.955 85.9585 278.391C85.9585 279.827 86.4946 281.203 87.449 282.219C88.4033 283.234 89.6977 283.804 91.0473 283.804H100.051V401.652C100.051 403.087 100.587 404.464 101.541 405.48C102.495 406.495 103.79 407.065 105.139 407.065C106.489 407.065 107.783 406.495 108.738 405.48C109.692 404.464 110.228 403.087 110.228 401.652V294.207L167.278 404.207C167.955 405.447 169.066 406.351 170.368 406.721C171.67 407.091 173.057 406.896 174.225 406.179C175.392 405.462 176.244 404.282 176.594 402.897C176.945 401.512 176.764 400.036 176.092 398.793L116.455 283.804H388.938V283.874L329.337 398.793C328.662 400.037 328.479 401.514 328.829 402.901C329.178 404.288 330.031 405.47 331.199 406.188C332.368 406.906 333.757 407.1 335.061 406.729C336.364 406.357 337.476 405.45 338.151 404.207L388.938 306.283V401.652C388.938 403.087 389.474 404.464 390.428 405.48C391.383 406.495 392.677 407.065 394.027 407.065C395.376 407.065 396.671 406.495 397.625 405.48C398.579 404.464 399.115 403.087 399.115 401.652V286.659L400.596 283.804H408.901C410.251 283.804 411.545 283.234 412.5 282.219C413.454 281.203 413.99 279.827 413.99 278.391C413.99 276.955 413.454 275.578 412.5 274.563C411.545 273.548 410.251 272.977 408.901 272.977V272.977Z" fill="#3F3D56"/>
<path d="M277.376 269.646H215.527C214.014 269.646 212.787 270.951 212.787 272.561C212.787 274.171 214.014 275.476 215.527 275.476H277.376C278.889 275.476 280.116 274.171 280.116 272.561C280.116 270.951 278.889 269.646 277.376 269.646Z" fill="#CCCCCC"/>
<path d="M318.869 275.476H249.191C247.842 275.474 246.549 274.903 245.595 273.889C244.641 272.874 244.104 271.498 244.103 270.062V229.253C244.104 227.818 244.641 226.442 245.595 225.427C246.549 224.412 247.842 223.841 249.191 223.84H318.869C320.218 223.841 321.512 224.412 322.466 225.427C323.42 226.442 323.956 227.818 323.958 229.253V270.062C323.956 271.498 323.419 272.874 322.465 273.889C321.511 274.903 320.218 275.474 318.869 275.476V275.476Z" fill="#CCCCCC"/>
<path d="M284.03 254.655C286.624 254.655 288.728 252.418 288.728 249.658C288.728 246.898 286.624 244.661 284.03 244.661C281.436 244.661 279.333 246.898 279.333 249.658C279.333 252.418 281.436 254.655 284.03 254.655Z" fill="white"/>
<path d="M372.043 174.928V28.7642C372.045 27.1034 372.666 25.5112 373.77 24.3368C374.874 23.1625 376.371 22.5019 377.932 22.5H486.541C488.103 22.5019 489.599 23.1625 490.703 24.3368C491.807 25.5112 492.428 27.1034 492.43 28.7642V174.928C492.428 176.589 491.807 178.181 490.703 179.356C489.599 180.53 488.103 181.19 486.541 181.192H377.932C376.371 181.19 374.874 180.53 373.77 179.356C372.666 178.181 372.045 176.589 372.043 174.928V174.928ZM377.932 23.892C376.718 23.8935 375.554 24.4073 374.695 25.3207C373.836 26.234 373.353 27.4724 373.352 28.7642V174.928C373.353 176.22 373.836 177.458 374.695 178.372C375.554 179.285 376.718 179.799 377.932 179.8H486.541C487.756 179.799 488.92 179.285 489.778 178.372C490.637 177.458 491.12 176.22 491.121 174.928V28.7642C491.12 27.4724 490.637 26.234 489.778 25.3207C488.92 24.4073 487.756 23.8935 486.541 23.892H377.932Z" fill="#E6E6E6"/>
<path d="M438.327 89.6252V59.6132C438.328 58.7828 438.638 57.9866 439.19 57.3994C439.742 56.8123 440.491 56.482 441.271 56.4811H465.179C465.959 56.482 466.708 56.8123 467.259 57.3994C467.811 57.9866 468.122 58.7828 468.123 59.6132V89.6252C468.122 90.4556 467.811 91.2518 467.259 91.8389C466.708 92.4261 465.959 92.7564 465.179 92.7573H441.271C440.491 92.7564 439.742 92.4261 439.19 91.8389C438.638 91.2518 438.328 90.4556 438.327 89.6252V89.6252Z" fill="#6C63FF"/>
<path d="M391.874 103.546V73.5336C391.875 72.7032 392.185 71.9071 392.737 71.3199C393.289 70.7327 394.037 70.4024 394.818 70.4015H418.725C419.506 70.4024 420.254 70.7327 420.806 71.3199C421.358 71.9071 421.668 72.7032 421.669 73.5336V103.546C421.668 104.376 421.358 105.172 420.806 105.759C420.254 106.347 419.506 106.677 418.725 106.678H394.818C394.037 106.677 393.289 106.347 392.737 105.759C392.185 105.172 391.875 104.376 391.874 103.546V103.546Z" fill="#CCCCCC"/>
<path d="M429.167 146.003V115.991C429.168 115.16 429.479 114.364 430.031 113.777C430.583 113.19 431.331 112.86 432.112 112.859H456.019C456.799 112.86 457.548 113.19 458.1 113.777C458.652 114.364 458.962 115.16 458.963 115.991V146.003C458.962 146.833 458.652 147.629 458.1 148.217C457.548 148.804 456.799 149.134 456.019 149.135H432.112C431.331 149.134 430.583 148.804 430.031 148.217C429.479 147.629 429.168 146.833 429.167 146.003Z" fill="#FF6584"/>
<path d="M611.494 37.7303C614.29 37.7303 616.556 35.319 616.556 32.3444C616.556 29.3698 614.29 26.9585 611.494 26.9585C608.697 26.9585 606.431 29.3698 606.431 32.3444C606.431 35.319 608.697 37.7303 611.494 37.7303Z" fill="#F2F2F2"/>
<path d="M611.494 59.1955C614.29 59.1955 616.556 56.7842 616.556 53.8096C616.556 50.8351 614.29 48.4237 611.494 48.4237C608.697 48.4237 606.431 50.8351 606.431 53.8096C606.431 56.7842 608.697 59.1955 611.494 59.1955Z" fill="#F2F2F2"/>
<path d="M611.494 80.6606C614.29 80.6606 616.556 78.2493 616.556 75.2747C616.556 72.3001 614.29 69.8888 611.494 69.8888C608.697 69.8888 606.431 72.3001 606.431 75.2747C606.431 78.2493 608.697 80.6606 611.494 80.6606Z" fill="#F2F2F2"/>
<path d="M611.494 102.126C614.29 102.126 616.556 99.7144 616.556 96.7398C616.556 93.7652 614.29 91.3539 611.494 91.3539C608.697 91.3539 606.431 93.7652 606.431 96.7398C606.431 99.7144 608.697 102.126 611.494 102.126Z" fill="#F2F2F2"/>
<path d="M590.355 37.7303C593.152 37.7303 595.418 35.319 595.418 32.3444C595.418 29.3698 593.152 26.9585 590.355 26.9585C587.559 26.9585 585.293 29.3698 585.293 32.3444C585.293 35.319 587.559 37.7303 590.355 37.7303Z" fill="#F2F2F2"/>
<path d="M590.355 59.1955C593.152 59.1955 595.418 56.7842 595.418 53.8096C595.418 50.8351 593.152 48.4237 590.355 48.4237C587.559 48.4237 585.293 50.8351 585.293 53.8096C585.293 56.7842 587.559 59.1955 590.355 59.1955Z" fill="#F2F2F2"/>
<path d="M590.355 80.6606C593.152 80.6606 595.418 78.2493 595.418 75.2747C595.418 72.3001 593.152 69.8888 590.355 69.8888C587.559 69.8888 585.293 72.3001 585.293 75.2747C585.293 78.2493 587.559 80.6606 590.355 80.6606Z" fill="#F2F2F2"/>
<path d="M590.355 102.126C593.152 102.126 595.418 99.7144 595.418 96.7398C595.418 93.7652 593.152 91.3539 590.355 91.3539C587.559 91.3539 585.293 93.7652 585.293 96.7398C585.293 99.7144 587.559 102.126 590.355 102.126Z" fill="#F2F2F2"/>
<path d="M569.217 37.7303C572.014 37.7303 574.28 35.319 574.28 32.3444C574.28 29.3698 572.014 26.9585 569.217 26.9585C566.421 26.9585 564.155 29.3698 564.155 32.3444C564.155 35.319 566.421 37.7303 569.217 37.7303Z" fill="#F2F2F2"/>
<path d="M569.217 59.1955C572.014 59.1955 574.28 56.7842 574.28 53.8096C574.28 50.8351 572.014 48.4237 569.217 48.4237C566.421 48.4237 564.155 50.8351 564.155 53.8096C564.155 56.7842 566.421 59.1955 569.217 59.1955Z" fill="#F2F2F2"/>
<path d="M569.217 80.6606C572.014 80.6606 574.28 78.2493 574.28 75.2747C574.28 72.3001 572.014 69.8888 569.217 69.8888C566.421 69.8888 564.155 72.3001 564.155 75.2747C564.155 78.2493 566.421 80.6606 569.217 80.6606Z" fill="#F2F2F2"/>
<path d="M569.217 102.126C572.014 102.126 574.28 99.7144 574.28 96.7398C574.28 93.7652 572.014 91.3539 569.217 91.3539C566.421 91.3539 564.155 93.7652 564.155 96.7398C564.155 99.7144 566.421 102.126 569.217 102.126Z" fill="#F2F2F2"/>
<path d="M548.079 37.7303C550.875 37.7303 553.142 35.319 553.142 32.3444C553.142 29.3698 550.875 26.9585 548.079 26.9585C545.283 26.9585 543.016 29.3698 543.016 32.3444C543.016 35.319 545.283 37.7303 548.079 37.7303Z" fill="#F2F2F2"/>
<path d="M548.079 59.1955C550.875 59.1955 553.142 56.7842 553.142 53.8096C553.142 50.8351 550.875 48.4237 548.079 48.4237C545.283 48.4237 543.016 50.8351 543.016 53.8096C543.016 56.7842 545.283 59.1955 548.079 59.1955Z" fill="#F2F2F2"/>
<path d="M548.079 80.6606C550.875 80.6606 553.142 78.2493 553.142 75.2747C553.142 72.3001 550.875 69.8888 548.079 69.8888C545.283 69.8888 543.016 72.3001 543.016 75.2747C543.016 78.2493 545.283 80.6606 548.079 80.6606Z" fill="#F2F2F2"/>
<path d="M548.079 102.126C550.875 102.126 553.142 99.7144 553.142 96.7398C553.142 93.7652 550.875 91.3539 548.079 91.3539C545.283 91.3539 543.016 93.7652 543.016 96.7398C543.016 99.7144 545.283 102.126 548.079 102.126Z" fill="#F2F2F2"/>
<path d="M526.941 37.7303C529.737 37.7303 532.004 35.319 532.004 32.3444C532.004 29.3698 529.737 26.9585 526.941 26.9585C524.145 26.9585 521.878 29.3698 521.878 32.3444C521.878 35.319 524.145 37.7303 526.941 37.7303Z" fill="#F2F2F2"/>
<path d="M526.941 59.1955C529.737 59.1955 532.004 56.7842 532.004 53.8096C532.004 50.8351 529.737 48.4237 526.941 48.4237C524.145 48.4237 521.878 50.8351 521.878 53.8096C521.878 56.7842 524.145 59.1955 526.941 59.1955Z" fill="#F2F2F2"/>
<path d="M526.941 80.6606C529.737 80.6606 532.004 78.2493 532.004 75.2747C532.004 72.3001 529.737 69.8888 526.941 69.8888C524.145 69.8888 521.878 72.3001 521.878 75.2747C521.878 78.2493 524.145 80.6606 526.941 80.6606Z" fill="#F2F2F2"/>
<path d="M526.941 102.126C529.737 102.126 532.004 99.7144 532.004 96.7398C532.004 93.7652 529.737 91.3539 526.941 91.3539C524.145 91.3539 521.878 93.7652 521.878 96.7398C521.878 99.7144 524.145 102.126 526.941 102.126Z" fill="#F2F2F2"/>
<path d="M505.803 37.7303C508.599 37.7303 510.866 35.319 510.866 32.3444C510.866 29.3698 508.599 26.9585 505.803 26.9585C503.007 26.9585 500.74 29.3698 500.74 32.3444C500.74 35.319 503.007 37.7303 505.803 37.7303Z" fill="#F2F2F2"/>
<path d="M505.803 59.1955C508.599 59.1955 510.866 56.7842 510.866 53.8096C510.866 50.8351 508.599 48.4237 505.803 48.4237C503.007 48.4237 500.74 50.8351 500.74 53.8096C500.74 56.7842 503.007 59.1955 505.803 59.1955Z" fill="#F2F2F2"/>
<path d="M505.803 80.6606C508.599 80.6606 510.866 78.2493 510.866 75.2747C510.866 72.3001 508.599 69.8888 505.803 69.8888C503.007 69.8888 500.74 72.3001 500.74 75.2747C500.74 78.2493 503.007 80.6606 505.803 80.6606Z" fill="#F2F2F2"/>
<path d="M505.803 102.126C508.599 102.126 510.866 99.7144 510.866 96.7398C510.866 93.7652 508.599 91.3539 505.803 91.3539C503.007 91.3539 500.74 93.7652 500.74 96.7398C500.74 99.7144 503.007 102.126 505.803 102.126Z" fill="#F2F2F2"/>
<path d="M526.2 223.426C525.785 222.213 525.615 220.92 525.702 219.632C525.789 218.345 526.131 217.091 526.705 215.954C527.279 214.817 528.073 213.821 529.034 213.033C529.995 212.245 531.102 211.681 532.282 211.379C532.656 211.286 533.035 211.22 533.418 211.183L552.444 175.705L547.64 166.924L559.599 157.11L568.748 170.628C569.839 172.253 570.409 174.21 570.372 176.206C570.335 178.203 569.695 180.134 568.545 181.712L542.424 217.286C542.518 217.569 542.6 217.856 542.667 218.148C542.95 219.403 542.981 220.708 542.757 221.977C542.533 223.246 542.06 224.45 541.368 225.511C540.676 226.572 539.781 227.465 538.742 228.132C537.703 228.8 536.544 229.226 535.339 229.383C534.989 229.43 534.637 229.453 534.285 229.453C532.52 229.447 530.799 228.866 529.354 227.789C527.908 226.711 526.808 225.188 526.2 223.426V223.426Z" fill="#FFB8B8"/>
<path d="M489.08 398.019L479.481 398.018L474.916 358.635L489.081 358.636L489.08 398.019Z" fill="#FFB8B8"/>
<path d="M472.626 395.101H491.136V407.499H460.971C460.971 405.871 461.272 404.259 461.858 402.755C462.444 401.25 463.302 399.884 464.384 398.732C465.467 397.581 466.752 396.668 468.166 396.045C469.58 395.422 471.095 395.101 472.626 395.101V395.101Z" fill="#2F2E41"/>
<path d="M568.152 398.019L558.553 398.018L553.988 358.635L568.153 358.636L568.152 398.019Z" fill="#FFB8B8"/>
<path d="M551.698 395.101H570.208V407.499H540.043C540.043 405.871 540.344 404.259 540.93 402.755C541.516 401.25 542.374 399.884 543.457 398.732C544.539 397.581 545.824 396.668 547.238 396.045C548.652 395.422 550.167 395.101 551.698 395.101V395.101Z" fill="#2F2E41"/>
<path d="M562.261 159.027L540.712 167.738L535.451 152.192C534.752 150.128 534.762 147.867 535.479 145.81C536.195 143.752 537.572 142.031 539.367 140.949V140.949C541.182 139.855 543.305 139.487 545.353 139.912C547.401 140.338 549.238 141.528 550.533 143.268L562.261 159.027Z" fill="#6C63FF"/>
<path d="M489.908 366.122L471.836 361.737C470.874 361.502 470.033 360.889 469.479 360.021C468.925 359.152 468.701 358.094 468.851 357.057C476.103 308.161 483.08 279.527 501.059 243.163C501.311 242.485 504.118 228.724 505.95 219.606C505.929 218.602 506.252 217.623 506.859 216.854C507.466 216.084 508.316 215.575 509.249 215.422L542.948 209.905C543.457 209.717 543.993 209.631 544.531 209.652L544.868 209.719L544.864 210.072C544.859 210.436 544.518 210.492 544.39 210.513L543.942 210.586C544.453 210.84 544.922 211.179 545.332 211.591C560.097 230.483 567.775 292.41 577.527 360.824C577.581 361.379 577.517 361.941 577.341 362.466C577.164 362.992 576.879 363.469 576.506 363.862C576.153 364.272 575.726 364.601 575.25 364.83C574.774 365.06 574.259 365.184 573.736 365.195L552.206 365.753C551.26 365.776 550.339 365.432 549.614 364.786C548.888 364.139 548.409 363.235 548.264 362.24L533.762 273.085C533.662 272.389 533.355 271.744 532.888 271.246C532.42 270.747 531.814 270.421 531.16 270.313C530.505 270.206 529.836 270.323 529.248 270.649C528.661 270.974 528.187 271.491 527.894 272.123C516.194 297.47 505.284 319.391 494.538 363.124C494.325 364.011 493.84 364.797 493.161 365.359C492.482 365.921 491.646 366.226 490.786 366.227C490.491 366.227 490.196 366.192 489.908 366.122V366.122Z" fill="#2F2E41"/>
<path d="M507.451 220.624C506.997 220.283 506.617 219.843 506.336 219.333C506.055 218.824 505.879 218.256 505.82 217.669C503.059 190.26 504.982 168.811 511.696 152.095C512.878 149.212 514.66 146.651 516.906 144.606C519.153 142.56 521.806 141.083 524.666 140.285L542.085 139.35L542.175 139.396C546.106 141.445 549.311 144.786 551.317 148.924C553.322 153.063 554.02 157.779 553.307 162.373C547.705 178.083 543.013 194.44 546.591 207.635C546.741 208.187 546.785 208.765 546.72 209.335C546.655 209.905 546.482 210.455 546.212 210.953C545.951 211.433 545.599 211.852 545.18 212.183C544.76 212.514 544.281 212.749 543.773 212.876L510.595 221.272C510.058 221.408 509.5 221.42 508.957 221.309C508.415 221.197 507.901 220.964 507.451 220.624V220.624Z" fill="#6C63FF"/>
<path d="M499.952 181.291L466.543 153.253C466.277 153.352 466.006 153.437 465.732 153.507C464.553 153.801 463.329 153.827 462.139 153.584C460.95 153.342 459.822 152.835 458.828 152.099C457.828 151.361 456.988 150.405 456.363 149.295C455.739 148.184 455.344 146.944 455.206 145.658C454.982 143.602 455.418 141.526 456.442 139.766C457.467 138.007 459.02 136.667 460.85 135.965C461.993 135.529 463.208 135.355 464.418 135.454C465.628 135.553 466.805 135.922 467.871 136.539C468.938 137.155 469.869 138.004 470.606 139.03C471.342 140.056 471.867 141.236 472.144 142.492C472.231 142.891 472.29 143.295 472.324 143.702L505.582 164.113L513.859 159.044L523.027 171.813L510.177 181.556C508.672 182.688 506.865 183.273 505.023 183.225C503.182 183.177 501.403 182.499 499.952 181.291H499.952Z" fill="#FFB8B8"/>
<path d="M527.104 175.789L508.041 162L517 148.502C518.19 146.71 519.936 145.422 521.932 144.868C523.927 144.313 526.043 144.526 527.905 145.47V145.47C529.788 146.425 531.288 148.065 532.135 150.094C532.981 152.123 533.117 154.406 532.519 156.533L527.104 175.789Z" fill="#6C63FF"/>
<path d="M536.271 132.429C546.891 132.429 555.5 123.271 555.5 111.974C555.5 100.676 546.891 91.5181 536.271 91.5181C525.652 91.5181 517.043 100.676 517.043 111.974C517.043 123.271 525.652 132.429 536.271 132.429Z" fill="#FFB8B8"/>
<path d="M529.222 108.927C524.28 112.525 517.79 116.224 512.743 112.392C509.428 109.876 508.384 105.217 509.728 101.128C512.145 93.7752 518.786 90.5381 525.136 88.0569C533.391 84.8312 542.38 82.2651 550.902 84.5751C559.424 86.8852 566.955 95.6627 565.417 104.874C564.18 112.281 557.612 118.445 558.544 125.903C559.482 133.409 567.417 137.359 574.422 138.701C581.427 140.042 589.266 140.473 594.3 145.826C600.722 152.654 599.119 164.859 593.076 172.069C587.033 179.278 577.914 182.546 569.077 184.767C557.369 187.711 544.707 189.258 533.587 184.373C522.468 179.488 513.815 166.338 517.036 154.008C518.396 148.799 521.602 144.397 524.699 140.112C527.797 135.827 530.933 131.345 532.115 126.088C533.1 121.706 532.371 116.619 529.64 113.333C529.143 112.758 528.83 112.03 528.747 111.254C528.663 110.478 528.813 109.693 529.174 109.013L529.222 108.927Z" fill="#2F2E41"/>
</g>
<defs>
<clipPath id="clip0_232_346">
<rect width="702" height="408" fill="white"/>
</clipPath>
</defs>
</svg>
