<?xml version="1.0" encoding="iso-8859-1"?>
<!-- Generator: Adobe Illustrator 18.0.0, SVG Export Plug-In . SVG Version: 6.00 Build 0)  -->
<!DOCTYPE svg PUBLIC "-//W3C//DTD SVG 1.1//EN" "http://www.w3.org/Graphics/SVG/1.1/DTD/svg11.dtd">
<svg fill="#5065a5" version="1.1" id="Capa_1" xmlns="http://www.w3.org/2000/svg" xmlns:xlink="http://www.w3.org/1999/xlink" x="0px" y="0px"
	 viewBox="0 0 134.944 134.944" style="enable-background:new 0 0 134.944 134.944;" xml:space="preserve">
<g>
	<path d="M130.001,29.843c-0.832-0.305-1.791-0.554-2.855-0.765c-0.756-2.729-1.787-4.553-3.195-5.069
		c-5.963-2.175-18.594-1.73-24.83-1.363c-7.516,0.447-14.953,0.856-22.494,0.999c-17.558,0.334-35.088,1.104-52.613,0.19
		c-6.58-0.346-22.932-1.318-22.885,4.47c0.002,0.089-0.225,4.083-0.215,4.154c-0.008,0.071-0.033,0.134-0.031,0.214
		c0.758,14.093-3.67,70.188,2.264,72.193c1.273,0.432,2.588,0.754,3.93,0.996c0.48,2.76,1.172,4.51,2.131,4.83
		c6.65,2.244,14.35,1.498,21.043,1.781c9.084,0.379,18.285-0.418,27.375-0.582c14.084-0.262,28.305-0.887,42.387-0.318
		c8.191,0.344,21.262,2.402,29.213-0.492c3.865-1.41,4.055-12.038,4.217-18.971C133.694,81.588,138.305,32.873,130.001,29.843z
		 M8.331,98.846c2.07-1.678,4.494-3.006,6.656-4.464c4.713-3.162,9.287-6.598,13.873-9.936c7.994-5.808,16.23-11.593,23.658-18.146
		c0.473-0.41,0.938-0.828,1.4-1.247c0.078-0.064,0.158-0.137,0.236-0.21c2.983,1.743,5.971,3.494,9.092,4.993
		c0.088,0.043,0.168,0.05,0.248,0.067c0.191,0.139,0.441,0.214,0.742,0.146c4.133-1.005,7.799-3.007,11.383-5.186
		c1.006,1.904,2.715,3.288,4.381,4.699c0.498,0.418,0.986,0.836,1.449,1.272c0.109,0.105,0.227,0.21,0.336,0.314
		c0.144,0.14,0.281,0.28,0.428,0.41c1.455,2.119,3.781,3.606,5.625,5.415c4.082,4.002,8.27,7.823,12.449,11.715
		c5.73,5.332,11.414,10.603,17.369,15.593c-7.521,1.05-19.875-0.316-26.297-0.363c-15.613-0.104-31.238,0.203-46.853,0.49
		c-9.33,0.177-18.65,0.445-28.016-0.268c-0.465-0.037-0.9-0.063-1.32-0.082c-0.98-0.044-1.853-0.063-2.672-0.083
		c-1.248-0.048-2.353-0.099-3.426-0.309C8.753,102.267,8.514,100.607,8.331,98.846z M125.19,30.718
		c0.516,1.745,0.865,3.822,1.084,5.876c0.076,0.71,0.133,1.422,0.182,2.116c0.113,1.771,0.137,3.435,0.09,4.754
		c-0.203,5.196-0.426,24.785-0.541,29.535c-0.254,10.05,0.105,26.662-2.984,29.42c-0.527,0.473-1.268,0.853-2.16,1.154
		c-8.15-6.124-15.705-12.793-23.088-19.822c-2.449-2.331-5.004-4.554-7.506-6.839c-0.77-0.769-1.533-1.547-2.314-2.307
		c-0.553-0.542-1.158-1.029-1.766-1.525c-0.871-0.865-1.734-1.739-2.596-2.613c-0.563-0.568-1.127-1.127-1.689-1.687
		c-0.082-0.079-0.172-0.157-0.254-0.227c-1.586-1.483-3.549-2.613-4.514-4.616c0.713-0.441,1.435-0.892,2.148-1.332
		c5.184-3.198,10.475-6.05,15.502-9.522c4.756-3.279,22.361-17.436,28.523-22.621C123.95,30.51,124.583,30.595,125.19,30.718z
		 M21.407,25.505c7.947,0.188,15.697,0.672,23.674,0.521c14.234-0.271,28.49-0.426,42.725-0.813
		c7.949-0.222,15.772-1.422,23.746-0.835c4.076,0.306,8.846-0.355,11.797,2.608c0.182,0.184,0.354,0.412,0.52,0.658
		c-0.262,0.236-0.578,0.518-0.955,0.847c-0.596,0.51-1.332,1.129-2.164,1.84c0,0,0,0-0.01,0
		c-7.064,5.932-21.635,17.609-25.635,20.366c-4.625,3.197-9.27,6.188-14.207,8.882c-5.598,3.046-10.57,7.05-16.846,8.675
		c-5.42-2.613-10.469-5.865-15.742-8.758c-4.203-2.316-25.182-18.028-36.895-26.444c-0.848-0.599-1.65-1.171-2.393-1.7
		c-2.545-1.804-4.404-3.06-5.168-3.455C7.182,25.883,17.227,25.407,21.407,25.505z M4.03,100.789
		c-2.123-3.877-2.262-15.461-2.305-20.912c-0.131-15.77,1.789-31.463,0.936-47.264c-0.002-0.089,0.121-3.085,0.109-3.165
		c0-0.045,0.008-0.08,0.008-0.125c0.834,0.411,2.584,1.563,4.914,3.202c11.002,7.69,35.141,26.085,39.773,28.535
		c0.783,0.413,1.566,0.843,2.34,1.274c0.02,0.008,0.027,0.018,0.037,0.025c0.908,0.5,1.801,1.018,2.701,1.543
		c-0.063,0.054-0.123,0.109-0.184,0.164c-0.455,0.419-0.92,0.828-1.385,1.237c-8.104,7.101-17.129,13.383-25.846,19.649
		c-4.578,3.293-9.125,6.71-13.887,9.74c-1.047,0.67-2.102,1.35-3.094,2.08c-0.643,0.476-1.256,0.968-1.844,1.487
		C5.465,99.026,4.688,99.85,4.03,100.789z M5.284,102.101c0.346-0.531,0.738-1.029,1.174-1.491c0.059,0.792,0.127,1.556,0.203,2.268
		C6.221,102.664,5.762,102.414,5.284,102.101z M10.081,106.615c-0.064-0.115-0.129-0.238-0.186-0.371
		c0.143,0.016,0.287,0.031,0.43,0.037C10.247,106.39,10.159,106.507,10.081,106.615z"/>
</g>
<g>
</g>
<g>
</g>
<g>
</g>
<g>
</g>
<g>
</g>
<g>
</g>
<g>
</g>
<g>
</g>
<g>
</g>
<g>
</g>
<g>
</g>
<g>
</g>
<g>
</g>
<g>
</g>
<g>
</g>
</svg>
