<svg width="496" height="353" viewBox="0 0 496 353" fill="none" xmlns="http://www.w3.org/2000/svg">
<g clip-path="url(#clip0_232_82)">
<path d="M315.879 264.217V349.07H99.1842C74.4947 349.07 54.4072 330.037 54.4072 306.644C54.4072 283.25 74.4947 264.217 99.1842 264.217H315.879Z" fill="#F2F2F2"/>
<path d="M321.202 348.417C321.201 349.283 320.851 350.113 320.227 350.725C319.603 351.337 318.757 351.681 317.875 351.681H95.3245C83.2374 351.681 71.6453 346.97 63.0984 338.585C54.5515 330.2 49.7499 318.828 49.7499 306.97C49.7499 295.112 54.5515 283.739 63.0984 275.355C71.6453 266.97 83.2374 262.259 95.3245 262.259H317.875C318.757 262.259 319.603 262.603 320.227 263.215C320.851 263.827 321.202 264.657 321.202 265.523C321.202 266.388 320.851 267.218 320.227 267.83C319.603 268.442 318.757 268.786 317.875 268.786H95.3245C85.0019 268.786 75.1021 272.809 67.8029 279.97C60.5037 287.131 56.4031 296.843 56.4031 306.97C56.4031 317.097 60.5037 326.809 67.8029 333.97C75.1021 341.131 85.0019 345.154 95.3245 345.154H317.875C318.757 345.154 319.603 345.498 320.227 346.11C320.851 346.722 321.201 347.552 321.202 348.417Z" fill="#7B96F6"/>
<path d="M315.879 283.799H83.016C82.8396 283.799 82.6703 283.73 82.5456 283.608C82.4208 283.485 82.3507 283.319 82.3507 283.146C82.3507 282.973 82.4208 282.807 82.5456 282.684C82.6703 282.562 82.8396 282.493 83.016 282.493H315.879C316.055 282.493 316.225 282.562 316.349 282.684C316.474 282.807 316.544 282.973 316.544 283.146C316.544 283.319 316.474 283.485 316.349 283.608C316.225 283.73 316.055 283.799 315.879 283.799Z" fill="#CCCCCC"/>
<path d="M315.879 299.464H83.016C82.8396 299.464 82.6703 299.395 82.5456 299.273C82.4208 299.15 82.3507 298.984 82.3507 298.811C82.3507 298.638 82.4208 298.472 82.5456 298.35C82.6703 298.227 82.8396 298.158 83.016 298.158H315.879C316.055 298.158 316.225 298.227 316.349 298.35C316.474 298.472 316.544 298.638 316.544 298.811C316.544 298.984 316.474 299.15 316.349 299.273C316.225 299.395 316.055 299.464 315.879 299.464Z" fill="#CCCCCC"/>
<path d="M315.879 315.129H83.016C82.8396 315.129 82.6703 315.06 82.5456 314.938C82.4208 314.815 82.3507 314.649 82.3507 314.476C82.3507 314.303 82.4208 314.137 82.5456 314.015C82.6703 313.892 82.8396 313.824 83.016 313.824H315.879C316.055 313.824 316.225 313.892 316.349 314.015C316.474 314.137 316.544 314.303 316.544 314.476C316.544 314.649 316.474 314.815 316.349 314.938C316.225 315.06 316.055 315.129 315.879 315.129Z" fill="#CCCCCC"/>
<path d="M315.879 330.794H83.016C82.8396 330.794 82.6703 330.725 82.5456 330.603C82.4208 330.481 82.3507 330.315 82.3507 330.141C82.3507 329.968 82.4208 329.802 82.5456 329.68C82.6703 329.558 82.8396 329.489 83.016 329.489H315.879C316.055 329.489 316.225 329.558 316.349 329.68C316.474 329.802 316.544 329.968 316.544 330.141C316.544 330.315 316.474 330.481 316.349 330.603C316.225 330.725 316.055 330.794 315.879 330.794Z" fill="#CCCCCC"/>
<path d="M483.352 280.19L429.085 346.263L260.349 212.881C241.124 197.683 237.655 170.498 252.616 152.282C267.577 134.066 295.391 131.61 314.616 146.807L483.352 280.19Z" fill="#F2F2F2"/>
<path d="M433.647 349.031C433.094 349.705 432.29 350.135 431.413 350.228C430.536 350.32 429.657 350.067 428.97 349.525L255.674 212.538C246.262 205.098 240.248 194.295 238.955 182.504C237.663 170.714 241.197 158.903 248.781 149.67C256.364 140.436 267.376 134.536 279.394 133.268C291.412 132 303.451 135.467 312.863 142.907L486.159 279.894C486.499 280.162 486.782 280.494 486.992 280.871C487.202 281.247 487.334 281.66 487.38 282.086C487.427 282.512 487.388 282.944 487.265 283.355C487.142 283.766 486.938 284.15 486.663 284.484C486.389 284.818 486.051 285.095 485.667 285.301C485.283 285.506 484.862 285.635 484.428 285.681C483.993 285.727 483.554 285.688 483.135 285.567C482.715 285.446 482.324 285.245 481.984 284.976L308.689 147.989C304.709 144.841 300.136 142.493 295.231 141.078C290.326 139.664 285.185 139.212 280.101 139.747C275.018 140.283 270.092 141.796 265.605 144.199C261.118 146.603 257.157 149.85 253.949 153.756C250.742 157.661 248.35 162.148 246.91 166.961C245.471 171.774 245.012 176.818 245.559 181.804C246.107 186.791 247.651 191.623 250.103 196.024C252.555 200.426 255.866 204.31 259.849 207.455L433.144 344.442C433.831 344.985 434.27 345.774 434.364 346.634C434.458 347.495 434.201 348.357 433.647 349.031V349.031Z" fill="#CCCCCC"/>
<path d="M470.829 295.437L289.503 152.103C289.435 152.049 289.379 151.983 289.337 151.908C289.295 151.832 289.269 151.75 289.259 151.665C289.25 151.579 289.258 151.493 289.282 151.411C289.307 151.329 289.348 151.252 289.403 151.185C289.457 151.118 289.525 151.063 289.602 151.022C289.679 150.981 289.763 150.955 289.85 150.946C289.936 150.937 290.024 150.944 290.108 150.968C290.192 150.993 290.27 151.033 290.338 151.086L471.664 294.421C471.732 294.475 471.789 294.541 471.831 294.616C471.873 294.691 471.899 294.774 471.909 294.859C471.918 294.945 471.91 295.031 471.886 295.113C471.861 295.196 471.82 295.272 471.765 295.339C471.71 295.406 471.643 295.462 471.566 295.503C471.489 295.544 471.405 295.57 471.318 295.579C471.231 295.588 471.143 295.58 471.059 295.556C470.975 295.532 470.897 295.491 470.829 295.437V295.437Z" fill="#CCCCCC"/>
<path d="M460.811 307.636L279.485 164.301C279.348 164.192 279.26 164.035 279.241 163.863C279.223 163.691 279.274 163.519 279.385 163.384C279.496 163.249 279.656 163.163 279.831 163.145C280.007 163.126 280.182 163.176 280.32 163.285L461.645 306.619C461.714 306.673 461.77 306.739 461.812 306.815C461.854 306.89 461.881 306.972 461.89 307.058C461.9 307.143 461.892 307.229 461.867 307.312C461.843 307.394 461.802 307.471 461.747 307.537C461.692 307.604 461.624 307.66 461.547 307.701C461.471 307.742 461.386 307.768 461.299 307.777C461.213 307.786 461.125 307.778 461.041 307.754C460.957 307.73 460.879 307.69 460.811 307.636V307.636Z" fill="#CCCCCC"/>
<path d="M450.792 319.834L269.466 176.499C269.329 176.391 269.241 176.233 269.222 176.061C269.203 175.889 269.255 175.716 269.366 175.582C269.476 175.447 269.637 175.361 269.813 175.342C269.988 175.324 270.164 175.374 270.301 175.483L451.627 318.817C451.695 318.871 451.752 318.937 451.793 319.013C451.835 319.088 451.862 319.171 451.871 319.256C451.88 319.341 451.873 319.427 451.848 319.509C451.823 319.592 451.782 319.668 451.728 319.735C451.673 319.802 451.605 319.857 451.528 319.898C451.452 319.939 451.368 319.965 451.281 319.974C451.194 319.984 451.106 319.976 451.022 319.952C450.938 319.928 450.86 319.888 450.792 319.834V319.834Z" fill="#CCCCCC"/>
<path d="M440.774 332.032L259.448 188.697C259.38 188.644 259.323 188.577 259.281 188.502C259.239 188.427 259.213 188.344 259.204 188.259C259.194 188.174 259.202 188.088 259.227 188.005C259.252 187.923 259.292 187.846 259.347 187.78C259.402 187.713 259.47 187.657 259.546 187.616C259.623 187.575 259.707 187.549 259.794 187.54C259.881 187.531 259.969 187.539 260.053 187.563C260.137 187.587 260.215 187.627 260.283 187.681L441.608 331.015C441.677 331.069 441.733 331.136 441.775 331.211C441.817 331.286 441.844 331.369 441.853 331.454C441.863 331.539 441.855 331.626 441.83 331.708C441.806 331.79 441.765 331.867 441.71 331.934C441.655 332.001 441.587 332.056 441.51 332.097C441.434 332.138 441.349 332.164 441.262 332.173C441.176 332.182 441.088 332.175 441.004 332.15C440.92 332.126 440.842 332.086 440.774 332.032V332.032Z" fill="#CCCCCC"/>
<path d="M494.775 352.334H1.10539C0.928932 352.334 0.759704 352.265 0.634931 352.143C0.510159 352.02 0.440063 351.854 0.440063 351.681C0.440063 351.508 0.510159 351.342 0.634931 351.219C0.759704 351.097 0.928932 351.028 1.10539 351.028H494.775C494.951 351.028 495.12 351.097 495.245 351.219C495.37 351.342 495.44 351.508 495.44 351.681C495.44 351.854 495.37 352.02 495.245 352.143C495.12 352.265 494.951 352.334 494.775 352.334Z" fill="#CCCCCC"/>
<path d="M225.373 255.299L217.767 255.298L214.15 226.516L225.376 226.517L225.373 255.299Z" fill="#FFB8B8"/>
<path d="M212.334 253.166H227.003V262.227H203.098C203.098 261.037 203.337 259.859 203.801 258.759C204.265 257.66 204.945 256.661 205.803 255.82C206.66 254.978 207.679 254.311 208.799 253.856C209.92 253.4 211.121 253.166 212.334 253.166V253.166Z" fill="#2F2E41"/>
<path d="M147.667 255.299L140.061 255.298L136.443 226.516L147.669 226.517L147.667 255.299Z" fill="#FFB8B8"/>
<path d="M134.628 253.166H149.296V262.227H125.392C125.392 261.037 125.63 259.859 126.095 258.759C126.559 257.66 127.239 256.661 128.097 255.82C128.954 254.978 129.973 254.311 131.093 253.856C132.214 253.4 133.415 253.166 134.628 253.166V253.166Z" fill="#2F2E41"/>
<path d="M173.072 41.8027V38.5391C173.072 32.9562 175.332 27.6021 179.356 23.6544C183.38 19.7068 188.838 17.489 194.529 17.489H194.529C200.219 17.489 205.677 19.7068 209.701 23.6544C213.725 27.6021 215.985 32.9562 215.985 38.5391V41.8027C215.985 45.8275 214.355 49.6875 211.455 52.5335C208.554 55.3795 204.619 56.9783 200.516 56.9783H188.541C186.509 56.9783 184.498 56.5858 182.621 55.8231C180.744 55.0605 179.039 53.9427 177.603 52.5335C176.166 51.1243 175.027 49.4513 174.249 47.6101C173.472 45.769 173.072 43.7956 173.072 41.8027V41.8027Z" fill="#2F2E41"/>
<path d="M194.529 58.1013C203.553 58.1013 210.87 50.9238 210.87 42.0699C210.87 33.2161 203.553 26.0386 194.529 26.0386C185.504 26.0386 178.188 33.2161 178.188 42.0699C178.188 50.9238 185.504 58.1013 194.529 58.1013Z" fill="#FFB8B8"/>
<path d="M105.644 97.1676C106.307 96.5533 107.099 96.0891 107.965 95.8077C108.831 95.5263 109.749 95.4346 110.655 95.539C111.561 95.6434 112.432 95.9413 113.208 96.4119C113.984 96.8824 114.645 97.5141 115.145 98.2625L129.153 95.6629L132.839 103.629L113.005 107.028C111.668 107.768 110.1 108.002 108.599 107.684C107.098 107.367 105.768 106.52 104.86 105.305C103.953 104.09 103.532 102.59 103.676 101.09C103.82 99.5905 104.521 98.1947 105.644 97.1676V97.1676Z" fill="#FFB8B8"/>
<path d="M181.789 68.1973L181.972 68.4697L159.001 83.3153L120.241 95.4579C119.727 95.6199 119.286 95.9515 118.993 96.3964C118.701 96.8413 118.574 97.3719 118.636 97.8979L119.481 105.043C119.519 105.359 119.623 105.664 119.788 105.939C119.953 106.213 120.174 106.45 120.438 106.636C120.702 106.821 121.002 106.951 121.32 107.016C121.637 107.081 121.965 107.08 122.283 107.013L158.762 99.342C160.527 98.9728 162.197 98.2518 163.666 97.2236L189.473 79.2107C190.408 78.5541 191.155 77.6712 191.64 76.6478C192.124 75.6245 192.331 74.4954 192.24 73.3705C192.145 72.2441 191.753 71.1612 191.102 70.2284C190.452 69.2956 189.565 68.5451 188.529 68.0506C187.493 67.5561 186.343 67.3347 185.194 67.4082C184.044 67.4817 182.934 67.8475 181.972 68.4697L181.789 68.1973Z" fill="#CCCCCC"/>
<path d="M217.903 247.131C217.319 247.131 216.748 246.964 216.259 246.651C215.77 246.338 215.385 245.892 215.15 245.368L180.28 160.841C180.199 160.657 180.062 160.503 179.889 160.398C179.715 160.293 179.513 160.243 179.31 160.254C179.106 160.265 178.911 160.338 178.75 160.461C178.59 160.584 178.472 160.753 178.412 160.944L149.964 243.234C149.844 243.617 149.645 243.972 149.38 244.277C149.115 244.582 148.789 244.83 148.423 245.007C148.056 245.183 147.657 245.285 147.249 245.304C146.841 245.324 146.433 245.262 146.051 245.121L136.511 241.612C135.993 241.423 135.539 241.097 135.199 240.67C134.858 240.243 134.645 239.732 134.584 239.193C130.292 202.516 167.717 109.937 168.095 109.006L168.2 108.748L202.316 116.152L202.387 116.227C215.998 130.795 227.186 222.674 229.29 240.944C229.369 241.604 229.216 242.271 228.856 242.834C228.497 243.397 227.953 243.823 227.314 244.042L218.893 246.964C218.575 247.074 218.24 247.131 217.903 247.131Z" fill="#2F2E41"/>
<path d="M188.508 119.132C180.243 119.132 171.028 117.515 168.191 110.842L168.126 110.688L168.214 110.546C170.453 106.942 173.412 100.794 171.821 99.6404C168.688 97.3677 167.168 93.6289 167.303 88.5276C167.596 77.4538 175.287 67.6219 186.442 64.0623H186.442C189.555 63.0848 192.724 62.2844 195.931 61.6653C198.269 61.2024 200.683 61.2533 202.999 61.8144C205.315 62.3755 207.476 63.4328 209.326 64.9104C211.199 66.3977 212.713 68.2735 213.759 70.4032C214.806 72.5328 215.358 74.8634 215.377 77.2275C215.494 89.0618 213.637 105.544 204.125 116.861C203.68 117.386 203.059 117.739 202.374 117.86C197.798 118.672 193.159 119.097 188.508 119.132Z" fill="#CCCCCC"/>
<path d="M185.434 118.688C185.884 117.105 186.952 115.76 188.407 114.946C189.862 114.132 191.586 113.913 193.204 114.339C193.534 114.429 193.856 114.546 194.167 114.689L204.803 105.192L212.2 110.081L196.99 123.286C196.303 124.501 195.222 125.456 193.918 125.998C192.614 126.541 191.163 126.64 189.796 126.28C188.999 126.066 188.253 125.7 187.602 125.201C186.951 124.703 186.406 124.083 186.001 123.377C185.595 122.671 185.336 121.893 185.239 121.088C185.142 120.284 185.208 119.468 185.434 118.688V118.688Z" fill="#FFB8B8"/>
<path d="M203.118 118.809C202.428 118.809 201.759 118.575 201.225 118.146L197.031 114.784C196.681 114.503 196.401 114.149 196.21 113.747C196.02 113.346 195.925 112.907 195.932 112.464C195.939 112.021 196.048 111.585 196.251 111.19C196.454 110.794 196.745 110.448 197.103 110.179L214.696 96.9418C214.904 96.7842 215.041 96.5522 215.076 96.2962C215.112 96.0403 215.043 95.781 214.884 95.5746L204.026 81.4915C202.764 79.8607 202.132 77.8447 202.24 75.8002C202.348 73.7558 203.19 71.8148 204.616 70.3208V70.3208C206.119 68.7287 208.177 67.749 210.381 67.576C212.586 67.403 214.776 68.0494 216.517 69.3869L216.586 69.458L227.925 85.3858C229.151 86.3289 230.138 87.5373 230.809 88.9166C231.481 90.2959 231.818 91.8089 231.795 93.3372C231.771 94.8655 231.388 96.3679 230.676 97.727C229.963 99.0861 228.939 100.265 227.685 101.172L204.901 118.233C204.385 118.607 203.76 118.809 203.118 118.809Z" fill="#CCCCCC"/>
<path d="M180.054 37.56V29.6059L194.529 23.4052L208.33 29.6059V37.56C208.33 37.9062 208.19 38.2383 207.941 38.4831C207.691 38.7279 207.352 38.8654 207 38.8654H181.385C181.032 38.8654 180.693 38.7279 180.444 38.4831C180.194 38.2383 180.054 37.9062 180.054 37.56Z" fill="#2F2E41"/>
<path d="M193.864 18.5442C191.736 11.8614 196.206 4.20257 202.813 1.55733C209.421 -1.08791 217.326 0.761191 222.902 5.13152C228.477 9.50185 231.937 16.0478 233.769 22.8143C235.602 29.5809 235.95 36.6368 236.289 43.6303C244.407 45.0933 249.93 54.54 247.117 62.1533C244.305 69.7666 233.896 73.5489 226.707 69.5696C219.518 65.5903 217.436 54.8936 222.624 48.5955C225.079 45.6154 226.45 41.9169 226.521 38.0858C226.592 34.2547 225.357 30.5101 223.014 27.4449C220.67 24.3798 217.351 22.1693 213.582 21.1637C209.813 20.1581 205.81 20.4148 202.207 21.8931C198.206 23.5346 193.185 19.2696 193.864 18.5442Z" fill="#2F2E41"/>
<path d="M102.643 66.3119C92.9231 66.2493 83.3247 64.187 74.4679 60.2581C73.9406 60.0276 73.4931 59.6516 73.1799 59.176C72.8666 58.7003 72.7011 58.1456 72.7035 57.5793V33.8088C72.7044 33.0301 73.0201 32.2835 73.5814 31.7328C74.1427 31.1822 74.9037 30.8724 75.6975 30.8716H129.589C130.382 30.8725 131.143 31.1822 131.705 31.7328C132.266 32.2835 132.582 33.0301 132.583 33.8088V57.5794C132.585 58.1456 132.419 58.7004 132.106 59.176C131.793 59.6516 131.345 60.0276 130.818 60.2581C121.961 64.187 112.363 66.2494 102.643 66.3119V66.3119Z" fill="#7B96F6"/>
<path d="M102.636 47.055C102.236 47.0553 101.841 46.9773 101.472 46.8255L58.7373 29.1372C58.1862 28.9091 57.7173 28.5243 57.3912 28.0324C57.0651 27.5405 56.8967 26.964 56.9076 26.3773C56.9186 25.7906 57.1085 25.2206 57.4527 24.7407C57.797 24.2609 58.2798 23.8932 58.8391 23.6851L101.575 7.77988C102.263 7.52253 103.024 7.52412 103.711 7.78434L145.874 23.6895C146.43 23.8993 146.91 24.2671 147.252 24.7458C147.593 25.2245 147.782 25.7924 147.793 26.3768C147.804 26.9612 147.637 27.5355 147.313 28.0263C146.99 28.517 146.524 28.902 145.977 29.1318L103.813 46.8198C103.441 46.9753 103.04 47.0553 102.636 47.055V47.055Z" fill="#7B96F6"/>
<path d="M77.6934 61.8755C79.8981 61.8755 81.6854 60.1222 81.6854 57.9593C81.6854 55.7964 79.8981 54.043 77.6934 54.043C75.4888 54.043 73.7015 55.7964 73.7015 57.9593C73.7015 60.1222 75.4888 61.8755 77.6934 61.8755Z" fill="#3F3D56"/>
<path opacity="0.2" d="M146.122 26.6211L103.959 44.3091C103.63 44.447 103.276 44.5185 102.919 44.5193C102.561 44.5202 102.207 44.4504 101.878 44.314L59.143 26.6262C58.6063 26.4094 58.1586 26.0233 57.8705 25.529C57.6821 25.8495 57.5653 26.2058 57.528 26.574C57.4906 26.9422 57.5336 27.314 57.6539 27.6647C57.7743 28.0154 57.9693 28.337 58.226 28.6081C58.4828 28.8792 58.7953 29.0936 59.143 29.2371L101.878 46.9249C102.207 47.0612 102.561 47.1311 102.919 47.1302C103.276 47.1294 103.63 47.0579 103.959 46.92L146.122 29.2319C146.468 29.0872 146.779 28.8721 147.034 28.6009C147.289 28.3297 147.482 28.0085 147.601 27.6585C147.72 27.3086 147.763 26.9378 147.725 26.5707C147.687 26.2036 147.571 25.8486 147.383 25.5289C147.097 26.0193 146.654 26.4033 146.122 26.6211V26.6211Z" fill="black"/>
<path d="M78.0289 57.944C78.2053 57.944 78.3746 57.8752 78.4993 57.7528C78.6241 57.6304 78.6942 57.4644 78.6942 57.2913V35.4505L100.637 27.608C100.814 27.6106 100.984 27.5443 101.111 27.4237C101.237 27.3032 101.31 27.1382 101.313 26.965C101.315 26.7919 101.248 26.6249 101.125 26.5007C101.002 26.3764 100.834 26.3052 100.657 26.3026L78.714 34.1451C78.5374 34.1411 78.3619 34.1723 78.1979 34.2368C78.034 34.3014 77.8852 34.3979 77.7604 34.5205C77.6343 34.6417 77.5342 34.7864 77.466 34.9461C77.3978 35.1058 77.363 35.2773 77.3635 35.4505V57.2913C77.3636 57.4644 77.4337 57.6304 77.5584 57.7528C77.6832 57.8752 77.8524 57.944 78.0289 57.944V57.944Z" fill="#3F3D56"/>
</g>
<defs>
<clipPath id="clip0_232_82">
<rect width="495" height="352" fill="white" transform="translate(0.440063 0.33374)"/>
</clipPath>
</defs>
</svg>