<svg width="421" height="496" viewBox="0 0 421 496" fill="none" xmlns="http://www.w3.org/2000/svg">
<g clip-path="url(#clip0_232_442)">
<path d="M3.75995 237.23C5.30318 239.756 7.39272 241.92 9.88141 243.57C12.3701 245.219 15.1974 246.313 18.1641 246.775C21.1309 247.237 24.1649 247.056 27.0525 246.245C29.9402 245.433 32.6111 244.011 34.8773 242.078L98.2193 277.689L95.8586 240.565L36.0699 212.439C32.5049 208.923 27.7478 206.81 22.7 206.502C17.6522 206.194 12.6645 207.711 8.68185 210.767C4.69923 213.823 1.99846 218.204 1.09133 223.082C0.18419 227.959 1.13371 232.993 3.75995 237.23Z" fill="#FFB8B8"/>
<path d="M187.141 379.89C168.352 405.669 169.024 448.797 174.266 496H263.103L266.965 487.166L272.115 496H355.802C355.802 496 349.365 376.104 337.777 372.317C326.19 368.531 187.141 379.89 187.141 379.89Z" fill="#2F2E41"/>
<path d="M263.103 110.555C287.99 110.555 308.165 90.7785 308.165 66.3828C308.165 41.9871 287.99 22.2104 263.103 22.2104C238.216 22.2104 218.041 41.9871 218.041 66.3828C218.041 90.7785 238.216 110.555 263.103 110.555Z" fill="#FFB8B8"/>
<path d="M295.672 122.016L304.484 138.572L365.435 165.206L349.413 317.191L342.67 332.93L346.313 346.598L337.53 356.685C346.347 364.505 347.467 372.692 342.67 381.16L314.602 387.462C314.602 387.462 158.539 401.066 171.691 377.366C186.062 351.47 189.722 274.993 157.997 234.125C131.063 199.43 151.741 154.409 151.741 154.409L215.629 135.693L239.128 122.016L295.672 122.016Z" fill="#3F3D56"/>
<path d="M283.109 1.67733C283.32 1.23814 283.661 0.871015 284.087 0.62311C284.513 0.375204 285.006 0.257829 285.5 0.286067C264.87 -0.923609 243.14 1.43343 225.881 12.5776C221.699 15.2775 217.757 18.4978 213.207 20.4564C212.992 20.551 212.806 20.6984 212.667 20.8843C212.527 21.0703 212.439 21.2884 212.411 21.5176C212.383 21.7467 212.416 21.9791 212.507 22.1921C212.597 22.4051 212.742 22.5915 212.928 22.7332L213.428 23.1174C213.625 23.269 213.776 23.4707 213.865 23.7005C213.953 23.9303 213.975 24.1795 213.929 24.4209C213.883 24.6624 213.771 24.8869 213.604 25.0699C213.437 25.253 213.222 25.3877 212.982 25.4593C212.732 25.534 212.509 25.6771 212.34 25.8718C212.17 26.0664 212.061 26.3046 212.024 26.5582C211.988 26.8117 212.027 27.0702 212.135 27.303C212.244 27.5358 212.418 27.7334 212.638 27.8724L216.467 30.2988C216.66 30.4188 216.819 30.5844 216.93 30.7804C217.041 30.9764 217.099 31.1965 217.1 31.4204C217.102 31.6444 217.046 31.8651 216.937 32.0622C216.829 32.2594 216.672 32.4267 216.48 32.5488C216.156 32.7452 215.815 32.9145 215.462 33.055C215.242 33.1359 215.047 33.271 214.896 33.4473C214.745 33.6235 214.642 33.8349 214.599 34.0612C214.555 34.2874 214.572 34.5208 214.647 34.7389C214.722 34.957 214.854 35.1524 215.028 35.3063C216.687 36.7536 217.959 38.5766 218.734 40.6163C220.01 43.8699 220.24 47.4132 220.455 50.8926C221.774 45.8722 227.364 42.917 232.644 42.6167C237.923 42.3164 243.073 44.0241 248.211 45.2516C259.403 47.9176 271.026 48.3559 282.393 46.5406C278.533 54.1341 281.789 63.1915 285.066 71.044L295.672 66.5877C310.238 58.5277 300.092 92.6229 294.646 97.3035C305.765 101.082 334.868 59.1419 325.506 43.2329C320.636 34.9573 324.093 24.2837 314.518 16.4349C309.825 11.5924 300.456 13.7447 295.672 9.72004C293.789 8.13599 296.659 3.89808 294.072 2.9745C293.212 2.66774 283.251 1.36815 283.109 1.67733Z" fill="#2F2E41"/>
<path d="M206.78 139.969C198.511 175.954 177.303 259.974 155.787 277.545C154.423 278.808 152.787 279.755 150.999 280.316C75.3693 298.377 51.136 252.307 51.136 252.307C51.136 252.307 71.4039 242.626 71.9179 223.701L112.791 236.133L148.422 157.533L153.665 152.739L153.694 152.71L206.78 139.969Z" fill="#3F3D56"/>
<path d="M368.035 472.272C370.201 470.232 371.884 467.75 372.965 465.003C374.047 462.256 374.501 459.31 374.295 456.372C374.089 453.434 373.229 450.576 371.775 448C370.32 445.423 368.307 443.191 365.878 441.459L387.079 372.964L350.701 383.543L336.145 446.965C333.448 451.159 332.414 456.177 333.24 461.069C334.065 465.96 336.692 470.385 340.623 473.504C344.554 476.623 349.516 478.221 354.568 477.994C359.62 477.767 364.412 475.731 368.035 472.272Z" fill="#FFB8B8"/>
<path d="M348.63 161.375L365.435 165.206C365.435 165.206 434.892 297.678 418.154 322.919C401.417 348.161 380.913 431.728 380.913 431.728C380.913 431.728 350.586 425.818 338.998 410.673L360.218 311.561L338.33 228.264L348.63 161.375Z" fill="#3F3D56"/>
<path d="M29.8224 358.091L30.4258 144.737C30.443 140.419 32.2069 136.283 35.3305 133.238C38.4541 130.193 42.6824 128.487 47.0876 128.494L211.462 128.941C215.868 128.958 220.086 130.687 223.192 133.749C226.299 136.811 228.039 140.956 228.032 145.274L227.429 358.628C227.411 362.946 225.647 367.081 222.524 370.126C219.4 373.171 215.172 374.877 210.767 374.87L46.3921 374.423C41.9869 374.407 37.7683 372.678 34.662 369.616C31.5556 366.554 29.8151 362.409 29.8224 358.091Z" fill="#E6E6E6"/>
<path d="M42.6132 293.683L43.0011 156.52C43.0172 152.476 44.6691 148.603 47.5945 145.751C50.5198 142.899 54.4798 141.302 58.6054 141.308L199.872 141.692C203.997 141.708 207.948 143.327 210.858 146.195C213.767 149.062 215.397 152.944 215.39 156.989L214.854 346.844C214.837 350.888 213.185 354.761 210.26 357.613C207.334 360.465 203.374 362.063 199.248 362.056L111.737 361.818C93.3598 361.748 75.7614 354.535 62.8026 341.761C49.8439 328.988 42.5831 311.698 42.6132 293.683Z" fill="white"/>
<path d="M183.685 201.559H73.5335C71.7806 201.559 70.0996 200.876 68.8602 199.661C67.6207 198.446 66.9244 196.798 66.9244 195.08C66.9244 193.362 67.6207 191.714 68.8602 190.499C70.0996 189.284 71.7806 188.601 73.5335 188.601H183.685C185.438 188.601 187.119 189.284 188.358 190.499C189.598 191.714 190.294 193.362 190.294 195.08C190.294 196.798 189.598 198.446 188.358 199.661C187.119 200.876 185.438 201.559 183.685 201.559Z" fill="#6C63FF"/>
<path d="M97.7668 171.685H73.5335C71.7806 171.685 70.0996 171.002 68.8602 169.787C67.6207 168.572 66.9244 166.925 66.9244 165.206C66.9244 163.488 67.6207 161.84 68.8602 160.625C70.0996 159.41 71.7806 158.728 73.5335 158.728H97.7668C99.5196 158.728 101.201 159.41 102.44 160.625C103.68 161.84 104.376 163.488 104.376 165.206C104.376 166.925 103.68 168.572 102.44 169.787C101.201 171.002 99.5196 171.685 97.7668 171.685Z" fill="#6C63FF"/>
<path d="M183.685 231.432H73.5335C71.7806 231.432 70.0996 230.75 68.8602 229.535C67.6207 228.32 66.9244 226.672 66.9244 224.953C66.9244 223.235 67.6207 221.587 68.8602 220.372C70.0996 219.157 71.7806 218.475 73.5335 218.475H183.685C185.438 218.475 187.119 219.157 188.358 220.372C189.598 221.587 190.294 223.235 190.294 224.953C190.294 226.672 189.598 228.32 188.358 229.535C187.119 230.75 185.438 231.432 183.685 231.432Z" fill="#6C63FF"/>
<path d="M183.685 261.306H73.5335C71.7806 261.306 70.0996 260.623 68.8602 259.408C67.6207 258.193 66.9244 256.545 66.9244 254.827C66.9244 253.109 67.6207 251.461 68.8602 250.246C70.0996 249.031 71.7806 248.348 73.5335 248.348H183.685C185.438 248.348 187.119 249.031 188.358 250.246C189.598 251.461 190.294 253.109 190.294 254.827C190.294 256.545 189.598 258.193 188.358 259.408C187.119 260.623 185.438 261.306 183.685 261.306Z" fill="#6C63FF"/>
<path d="M174.772 340.021C189.296 340.021 201.07 328.48 201.07 314.243C201.07 300.006 189.296 288.464 174.772 288.464C160.248 288.464 148.475 300.006 148.475 314.243C148.475 328.48 160.248 340.021 174.772 340.021Z" fill="#6C63FF"/>
<path d="M171.185 327.659C170.73 327.659 170.283 327.555 169.876 327.356C169.47 327.157 169.117 326.868 168.845 326.512L161.67 317.135C161.439 316.834 161.271 316.491 161.175 316.126C161.079 315.761 161.058 315.381 161.112 315.008C161.166 314.635 161.295 314.276 161.491 313.951C161.687 313.627 161.946 313.344 162.253 313.118C162.561 312.891 162.911 312.727 163.283 312.634C163.656 312.54 164.043 312.52 164.424 312.573C164.804 312.627 165.17 312.753 165.501 312.946C165.832 313.138 166.12 313.392 166.351 313.694L171.044 319.828L183.1 302.103C183.312 301.788 183.586 301.518 183.905 301.307C184.224 301.096 184.583 300.95 184.96 300.875C185.338 300.8 185.726 300.799 186.104 300.872C186.482 300.945 186.841 301.091 187.161 301.3C187.482 301.509 187.757 301.778 187.97 302.092C188.184 302.406 188.333 302.758 188.408 303.128C188.483 303.498 188.483 303.879 188.407 304.249C188.331 304.619 188.182 304.971 187.967 305.284L173.619 326.382C173.359 326.764 173.01 327.079 172.601 327.301C172.191 327.523 171.734 327.645 171.266 327.658C171.239 327.659 171.212 327.659 171.185 327.659Z" fill="white"/>
<path d="M118.696 78.825C125.59 78.825 131.179 73.3462 131.179 66.5877C131.179 59.8292 125.59 54.3503 118.696 54.3503C111.801 54.3503 106.212 59.8292 106.212 66.5877C106.212 73.3462 111.801 78.825 118.696 78.825Z" fill="#F2F2F2"/>
<path d="M73.1663 430.829C80.0609 430.829 85.6501 425.35 85.6501 418.591C85.6501 411.833 80.0609 406.354 73.1663 406.354C66.2717 406.354 60.6825 411.833 60.6825 418.591C60.6825 425.35 66.2717 430.829 73.1663 430.829Z" fill="#F2F2F2"/>
<path d="M360.294 126.335C367.189 126.335 372.778 120.856 372.778 114.097C372.778 107.339 367.189 101.86 360.294 101.86C353.4 101.86 347.81 107.339 347.81 114.097C347.81 120.856 353.4 126.335 360.294 126.335Z" fill="#F2F2F2"/>
</g>
<defs>
<clipPath id="clip0_232_442">
<rect width="420" height="496" fill="white" transform="translate(0.757446)"/>
</clipPath>
</defs>
</svg>
