<?xml version="1.0" encoding="iso-8859-1"?>
<!-- Generator: Adobe Illustrator 18.0.0, SVG Export Plug-In . SVG Version: 6.00 Build 0)  -->
<!DOCTYPE svg PUBLIC "-//W3C//DTD SVG 1.1//EN" "http://www.w3.org/Graphics/SVG/1.1/DTD/svg11.dtd">
<svg fill="#5065a5" version="1.1" id="Capa_1" xmlns="http://www.w3.org/2000/svg" xmlns:xlink="http://www.w3.org/1999/xlink" x="0px" y="0px"
	 viewBox="0 0 80.066 80.066" style="enable-background:new 0 0 80.066 80.066;" xml:space="preserve">
<g>
	<path d="M80.04,41.442c0.199-0.849-0.8-1.874-1.861-1.308c-4.271,2.239-8.03,4.208-13.088,3.253
		c-0.675-0.129-1.336-0.33-1.998-0.578c5.91-2.174,9.766-12.691,9.267-15.579c-0.262-1.556-1.599-2.664-3.298-2.121
		c-1.099,0.341-6.303,2.764-6.728,3.117c3.423-5.609,1.233-16.127,0.134-15.007c-5.982,6.032-12.644,12.438-20.575,14.453
		c-0.574,0.142-1.211,0.318-1.861,0.518c-3.859-6.341-4.778-14.827-19.625-13.842C9.447,15.077,5.682,25.227,6.506,31.343
		c-0.149,0.53-3.983,1.509-5.62,1.885c-0.687,0.165-0.998,0.86-0.849,1.462c0.637,2.568,3.309,2.982,5.682,3.56
		c-1.611,1.013-3.134,2.12-4.009,3.781c-0.362,0.684-0.036,1.521,0.775,1.722c2.123,0.541,4.171,0.082,6.182-0.601
		c2.585,2.722,6.794,3.972,10.828,4.194c1.361,3.56,3.247,6.907,6.156,9.817c6.208,6.163,15.337,9.546,24.229,9.759
		C64.928,67.273,80.065,56.29,80.065,41.56C80.065,41.513,80.052,41.49,80.04,41.442z M10.09,24.909
		c-0.287,0.329-0.561,0.66-0.836,1.002c0.325-1.119,0.812-2.191,1.46-3.17C10.478,23.448,10.265,24.165,10.09,24.909z
		 M13.974,21.857c-0.112,0.059-0.212,0.117-0.312,0.176c0.824-1.437,2.011-2.722,3.734-3.782c1.237-0.307,2.56-0.472,3.883-0.578
		C18.208,18.215,14.861,19.581,13.974,21.857z M21.043,44.871c-0.076-0.224-0.138-0.448-0.2-0.672
		c0.15,0.023,0.313,0.06,0.462,0.071c7.443,0.624,12.501-5.338,11.614-12.139c-0.05-0.377-0.25-0.659-0.524-0.848
		c0.012-0.106,0.038-0.225,0.012-0.343c-0.036-0.177,0.25-0.4,0.75-0.671c0.124,0.425,0.225,0.859,0.287,1.331
		C34.493,39.628,28.124,44.518,21.043,44.871z M36.017,23.624c-0.088,0.034-0.175,0.07-0.262,0.129
		c-0.038-0.07-0.088-0.141-0.125-0.212c-0.175-0.694-0.412-1.367-0.737-2.051c0.513,0.625,0.999,1.285,1.461,1.979
		C36.242,23.519,36.13,23.577,36.017,23.624z"/>
</g>
<g>
</g>
<g>
</g>
<g>
</g>
<g>
</g>
<g>
</g>
<g>
</g>
<g>
</g>
<g>
</g>
<g>
</g>
<g>
</g>
<g>
</g>
<g>
</g>
<g>
</g>
<g>
</g>
<g>
</g>
</svg>
