<svg width="666" height="499" viewBox="0 0 666 499" fill="none" xmlns="http://www.w3.org/2000/svg">
<g clip-path="url(#clip0_232_464)">
<path d="M608.004 444.783L609.002 422.348C619.403 416.789 631.004 413.852 642.797 413.793C626.566 427.064 628.594 452.645 617.59 470.49C614.115 476.03 609.438 480.716 603.905 484.203C598.373 487.689 592.127 489.886 585.63 490.63L572.047 498.947C570.183 488.556 570.594 477.885 573.252 467.669C575.909 457.452 580.75 447.933 587.44 439.768C591.239 435.224 595.595 431.177 600.405 427.722C603.658 436.3 608.004 444.783 608.004 444.783Z" fill="#F2F2F2"/>
<path d="M141.677 245.339C140.78 244.519 140.073 243.514 139.606 242.392C139.14 241.27 138.925 240.059 138.976 238.846C139.028 237.632 139.345 236.444 139.906 235.366C140.466 234.288 141.256 233.346 142.22 232.606L132.915 204.575L147.737 208.557L154.301 234.565C155.437 236.267 155.908 238.326 155.627 240.352C155.345 242.378 154.331 244.231 152.775 245.559C151.218 246.887 149.229 247.598 147.184 247.557C145.139 247.517 143.18 246.727 141.677 245.339V245.339Z" fill="#A0616A"/>
<path d="M168.541 93.0425C171.001 94.4524 185.552 90.9589 188.394 91.9527C186.825 101.524 195.346 97.9325 186.093 110.502C176.841 123.072 158.205 160.76 153.972 174.846C149.739 188.932 153.929 208.782 153.295 215.458C152.988 219.326 153.007 223.213 153.352 227.078C148.353 227.015 143.426 228.052 138.348 227.389C132.934 212.069 129.294 190.261 126.822 178.209C124.35 166.157 124.259 171.254 125.393 165.227C126.527 159.201 126.801 163.58 125.61 157.815C124.419 152.049 129.236 144.805 133.686 140.675C135.605 135.156 138.085 130.01 139.985 124.548C153.906 112.404 154.821 105.389 168.541 93.0425Z" fill="#6C63FF"/>
<path d="M573.005 483.401H560.706L554.855 435.961H573.008L573.005 483.401Z" fill="#FFB6B6"/>
<path d="M576.142 495.324L536.484 495.322V494.821C536.484 490.727 538.111 486.801 541.006 483.906C543.9 481.011 547.826 479.385 551.92 479.385H551.921L559.165 473.889L572.681 479.386L576.143 479.386L576.142 495.324Z" fill="#2F2E41"/>
<path d="M515.865 483.401H503.566L497.715 435.961H515.867L515.865 483.401Z" fill="#FFB6B6"/>
<path d="M519.002 495.324L479.344 495.322V494.821C479.344 490.727 480.97 486.801 483.865 483.906C486.76 481.011 490.686 479.385 494.78 479.385H494.781L502.025 473.889L515.541 479.386L519.003 479.386L519.002 495.324Z" fill="#2F2E41"/>
<path d="M510.541 224.042L590.541 226.042C605.735 234.295 605.966 252.156 600.988 273.363C600.988 273.363 602.668 285.967 599.307 289.328C595.946 292.69 594.265 292.69 595.946 298.572C597.626 304.454 588.747 314.061 589.826 315.139C590.904 316.218 593.425 322.1 593.425 322.1L585.022 369.997C585.022 369.997 579.14 453.186 577.459 454.867C575.779 456.548 574.098 454.867 575.779 459.069C577.459 463.27 579.14 461.59 577.459 463.27C575.97 464.875 574.568 466.558 573.258 468.312H552.942C552.942 468.312 551.41 459.909 551.41 459.069C551.41 458.228 549.729 453.187 549.729 452.346C549.729 451.506 551.215 450.021 551.215 450.021C551.728 448.312 552.075 446.559 552.25 444.784C552.25 443.103 557.292 378.4 557.292 378.4L547.209 294.37L522.84 376.719C522.84 376.719 522.84 448.985 521.159 450.666C519.479 452.346 519.479 451.506 520.319 454.867C521.159 458.228 524.52 457.388 522 459.909C519.479 462.43 518.638 458.228 519.479 462.43L520.319 466.631L495.11 466.992C495.11 466.992 491.749 459.909 493.429 457.388C495.11 454.867 495.009 455.555 492.959 451.43C490.908 447.304 490.068 446.464 490.909 445.624C491.749 444.783 491.749 440.314 491.749 440.314L495.95 359.913C495.95 359.913 496.791 275.043 496.791 272.522C496.854 271.225 496.615 269.931 496.093 268.742V265.32L499.312 253.196L510.541 224.042Z" fill="#2F2E41"/>
<path d="M558.599 57.6951C572.326 57.6951 583.455 46.5665 583.455 32.8386C583.455 19.1108 572.326 7.98218 558.599 7.98218C544.871 7.98218 533.742 19.1108 533.742 32.8386C533.742 46.5665 544.871 57.6951 558.599 57.6951Z" fill="#FFB6B6"/>
<path d="M546.17 74.1235C540.815 77.3071 537.612 83.1564 535.773 89.1087C532.369 100.129 530.319 111.522 529.671 123.038L527.728 157.513L503.674 230.921C524.521 248.561 602.883 234.93 602.883 234.93C602.883 234.93 605.289 234.128 602.883 231.722C600.478 229.317 598.136 231.448 600.541 229.043C602.947 226.637 601.289 229.317 600.487 226.911C599.685 224.506 600.487 226.11 601.289 225.308C602.09 224.506 595.081 217.289 595.081 217.289L601.496 175.153L609.514 90.1598C599.892 78.1325 580.541 71.0425 580.541 71.0425L575.541 62.0425L550.541 64.0425L546.17 74.1235Z" fill="#3F3D56"/>
<path d="M542.761 18.2511C543.723 18.2586 544.68 18.3842 545.611 18.6251C547.447 19.0664 549.311 19.379 551.19 19.5606C556.945 20.102 562.352 22.556 566.547 26.5308C570.743 30.5056 573.486 35.7718 574.338 41.4884C575.783 40.2291 579.069 37.9127 581.763 40.0655C581.804 40.0997 581.828 40.1173 581.923 40.0724C583.712 39.2237 586.888 28.7774 586.984 19.5797C587.035 14.6978 586.266 8.46396 582.318 6.48984L582.11 6.38584L582.055 6.15975C581.791 5.06161 578.844 3.18711 573.722 1.72813C564.414 -0.923245 550.812 -1.30655 542.998 6.29453C542.407 8.85703 540.209 9.55918 538.266 10.1808C536.114 10.8688 534.256 11.4625 533.963 14.1021C533.718 17.8586 533.736 21.6275 534.016 25.3814C534.745 23.0844 536.176 21.0738 538.108 19.6329C539.482 18.7082 541.105 18.226 542.761 18.2511Z" fill="#2F2E41"/>
<path d="M496.496 155.594L537.099 129.591L516.649 102.405L496.455 127.245L433.536 131.104C431.881 129.468 429.786 128.349 427.506 127.884C425.226 127.418 422.86 127.626 420.696 128.481C418.533 129.337 416.664 130.804 415.32 132.703C413.975 134.602 413.212 136.852 413.124 139.177C413.036 141.502 413.626 143.803 414.822 145.799C416.019 147.794 417.771 149.399 419.863 150.416C421.956 151.434 424.3 151.82 426.608 151.529C428.917 151.237 431.091 150.28 432.865 148.775L496.496 155.594Z" fill="#FFB6B6"/>
<path d="M574.784 93.2949C577.141 107.557 532.639 134.79 532.639 134.79C532.638 131.443 506.077 156.714 504.878 153.938C501.471 146.047 499.075 127.359 494.314 124.367C491.591 122.657 510.713 106.587 510.713 106.587C510.713 106.587 520.722 96.5028 533.858 83.7836C537.505 80.1188 542.019 77.4362 546.982 75.9857C551.944 74.5351 557.193 74.3637 562.24 75.4874C562.24 75.4874 572.428 79.0333 574.784 93.2949Z" fill="#3F3D56"/>
<path d="M529.541 257.043C529.559 272.305 527.003 287.46 521.981 301.873C521.751 302.543 521.511 303.203 521.271 303.873C510.992 331.79 491.871 355.584 466.821 371.633C465.111 372.733 463.381 373.783 461.621 374.803C441.608 386.405 418.952 392.678 395.821 393.023C395.061 393.033 394.301 393.043 393.541 393.043C392.561 393.043 391.591 393.033 390.621 393.013C367.459 392.552 344.803 386.155 324.821 374.433C323.061 373.403 321.328 372.333 319.621 371.223C291.81 353.194 271.531 325.638 262.589 293.723C253.647 261.808 256.656 227.727 271.051 197.873C271.371 197.203 271.701 196.543 272.041 195.873C283.379 173.373 300.741 154.463 322.194 141.251C343.647 128.039 368.347 121.043 393.541 121.043C418.736 121.043 443.436 128.039 464.889 141.251C486.341 154.463 503.704 173.373 515.041 195.873C515.381 196.543 515.711 197.203 516.031 197.873C524.954 216.32 529.573 236.551 529.541 257.043Z" fill="#F2F2F2"/>
<path d="M487.461 301.873V303.873H499.641V301.873H487.461ZM463.101 301.873V303.873H475.281V301.873H463.101ZM438.741 301.873V303.873H450.921V301.873H438.741ZM414.381 301.873V303.873H426.561V301.873H414.381ZM390.021 301.873V303.873H402.201V301.873H390.021ZM365.661 301.873V303.873H377.841V301.873H365.661ZM341.301 301.873V303.873H353.481V301.873H341.301ZM316.951 301.873V303.873H329.121V301.873H316.951ZM292.591 301.873V303.873H304.771V301.873H292.591ZM268.231 301.873V303.873H280.411V301.873H268.231ZM521.981 301.873H511.821V303.873H521.271L521.981 301.873Z" fill="#E6E6E6"/>
<path d="M511.821 287.873V289.873H524.001V287.873H511.821ZM487.461 287.873V289.873H499.641V287.873H487.461ZM463.101 287.873V289.873H475.281V287.873H463.101ZM438.741 287.873V289.873H450.921V287.873H438.741ZM414.381 287.873V289.873H426.561V287.873H414.381ZM390.021 287.873V289.873H402.201V287.873H390.021ZM365.661 287.873V289.873H377.841V287.873H365.661ZM341.301 287.873V289.873H353.481V287.873H341.301ZM316.951 287.873V289.873H329.121V287.873H316.951ZM292.591 287.873V289.873H304.771V287.873H292.591ZM268.231 287.873V289.873H280.411V287.873H268.231Z" fill="#E6E6E6"/>
<path d="M511.821 258.873V260.873H524.001V258.873H511.821ZM487.461 258.873V260.873H499.641V258.873H487.461ZM463.101 258.873V260.873H475.281V258.873H463.101ZM438.741 258.873V260.873H450.921V258.873H438.741ZM414.381 258.873V260.873H426.561V258.873H414.381ZM390.021 258.873V260.873H402.201V258.873H390.021ZM365.661 258.873V260.873H377.841V258.873H365.661ZM341.301 258.873V260.873H353.481V258.873H341.301ZM316.951 258.873V260.873H329.121V258.873H316.951ZM292.591 258.873V260.873H304.771V258.873H292.591ZM268.231 258.873V260.873H280.411V258.873H268.231Z" fill="#E6E6E6"/>
<path d="M511.821 238.873V240.873H524.001V238.873H511.821ZM487.461 238.873V240.873H499.641V238.873H487.461ZM463.101 238.873V240.873H475.281V238.873H463.101ZM438.741 238.873V240.873H450.921V238.873H438.741ZM414.381 238.873V240.873H426.561V238.873H414.381ZM390.021 238.873V240.873H402.201V238.873H390.021ZM365.661 238.873V240.873H377.841V238.873H365.661ZM341.301 238.873V240.873H353.481V238.873H341.301ZM316.951 238.873V240.873H329.121V238.873H316.951ZM292.591 238.873V240.873H304.771V238.873H292.591ZM268.231 238.873V240.873H280.411V238.873H268.231Z" fill="#E6E6E6"/>
<path d="M515.041 195.873H511.821V197.873H516.031C515.711 197.203 515.381 196.543 515.041 195.873ZM487.461 195.873V197.873H499.641V195.873H487.461ZM463.101 195.873V197.873H475.281V195.873H463.101ZM438.741 195.873V197.873H450.921V195.873H438.741ZM414.381 195.873V197.873H426.561V195.873H414.381ZM390.021 195.873V197.873H402.201V195.873H390.021ZM365.661 195.873V197.873H377.841V195.873H365.661ZM341.301 195.873V197.873H353.481V195.873H341.301ZM316.951 195.873V197.873H329.121V195.873H316.951ZM292.591 195.873V197.873H304.771V195.873H292.591ZM272.041 195.873C271.701 196.543 271.371 197.203 271.051 197.873H280.411V195.873H272.041Z" fill="#E6E6E6"/>
<path d="M466.821 202.613V371.633C465.111 372.733 463.381 373.783 461.621 374.803V202.613H466.821Z" fill="#3F3D56"/>
<path d="M395.821 258.613V393.023C395.061 393.033 394.301 393.043 393.541 393.043C392.561 393.043 391.591 393.033 390.621 393.013V258.613H395.821Z" fill="#3F3D56"/>
<path d="M324.821 202.613V374.433C323.061 373.403 321.328 372.333 319.621 371.223V202.613H324.821Z" fill="#3F3D56"/>
<path d="M70.0185 432.661L68.035 405.072C55.0415 398.577 40.6589 395.352 26.1361 395.677C46.5678 411.47 44.9312 443.034 59.0812 464.636C63.5461 471.34 69.4623 476.953 76.3914 481.059C83.3205 485.166 91.0848 487.66 99.109 488.358L116.113 498.14C118.058 485.284 117.193 472.159 113.577 459.67C109.962 447.18 103.681 435.623 95.1687 425.794C90.3387 420.328 84.8395 415.491 78.8009 411.399C75.0841 422.07 70.0185 432.661 70.0185 432.661Z" fill="#F2F2F2"/>
<path d="M463.541 216.042C474.035 216.042 482.541 207.536 482.541 197.042C482.541 186.549 474.035 178.042 463.541 178.042C453.048 178.042 444.541 186.549 444.541 197.042C444.541 207.536 453.048 216.042 463.541 216.042Z" fill="#6C63FF"/>
<path d="M473.295 189.124C473.009 188.851 472.629 188.699 472.234 188.699C471.839 188.699 471.459 188.851 471.174 189.124C467.142 192.339 463.521 196.038 460.392 200.137C459.623 198.65 458.855 197.164 458.087 195.678C457.2 193.962 454.611 195.478 455.497 197.192C456.62 199.366 457.744 201.54 458.868 203.714C459.003 203.936 459.193 204.119 459.42 204.247C459.647 204.374 459.903 204.441 460.163 204.441C460.423 204.441 460.679 204.374 460.905 204.247C461.132 204.119 461.322 203.936 461.458 203.714C464.793 199.018 468.778 194.819 473.295 191.245C473.574 190.963 473.731 190.582 473.731 190.185C473.731 189.788 473.574 189.406 473.295 189.124Z" fill="white"/>
<path d="M393.541 272.042C404.035 272.042 412.541 263.536 412.541 253.042C412.541 242.549 404.035 234.042 393.541 234.042C383.048 234.042 374.541 242.549 374.541 253.042C374.541 263.536 383.048 272.042 393.541 272.042Z" fill="#6C63FF"/>
<path d="M403.295 245.124C403.009 244.851 402.629 244.699 402.234 244.699C401.839 244.699 401.459 244.851 401.174 245.124C397.142 248.339 393.521 252.038 390.392 256.137C389.623 254.65 388.855 253.164 388.087 251.678C387.2 249.962 384.611 251.478 385.497 253.192C386.62 255.366 387.744 257.54 388.868 259.714C389.003 259.936 389.193 260.119 389.42 260.247C389.647 260.374 389.903 260.441 390.163 260.441C390.423 260.441 390.679 260.374 390.905 260.247C391.132 260.119 391.322 259.936 391.458 259.714C394.793 255.018 398.778 250.819 403.295 247.245C403.574 246.963 403.731 246.582 403.731 246.185C403.731 245.788 403.574 245.406 403.295 245.124Z" fill="white"/>
<path d="M322.541 220.042C333.035 220.042 341.541 211.536 341.541 201.042C341.541 190.549 333.035 182.042 322.541 182.042C312.048 182.042 303.541 190.549 303.541 201.042C303.541 211.536 312.048 220.042 322.541 220.042Z" fill="#6C63FF"/>
<path d="M332.295 193.124C332.009 192.851 331.629 192.699 331.234 192.699C330.839 192.699 330.459 192.851 330.174 193.124C326.142 196.339 322.521 200.038 319.392 204.137C318.623 202.65 317.855 201.164 317.087 199.678C316.2 197.962 313.611 199.478 314.497 201.192C315.62 203.366 316.744 205.54 317.868 207.714C318.003 207.936 318.193 208.119 318.42 208.247C318.647 208.374 318.903 208.441 319.163 208.441C319.423 208.441 319.679 208.374 319.905 208.247C320.132 208.119 320.322 207.936 320.458 207.714C323.793 203.018 327.778 198.819 332.295 195.245C332.574 194.963 332.731 194.582 332.731 194.185C332.731 193.788 332.574 193.406 332.295 193.124Z" fill="white"/>
<path d="M595.019 187.531L607.527 140.966L574.102 134.638L575.899 166.6L531.982 211.821C529.657 211.726 527.354 212.31 525.355 213.5C523.356 214.691 521.746 216.438 520.723 218.528C519.699 220.618 519.306 222.96 519.591 225.27C519.876 227.579 520.826 229.756 522.327 231.534C523.827 233.313 525.813 234.616 528.041 235.286C530.27 235.956 532.645 235.962 534.877 235.305C537.11 234.648 539.103 233.356 540.613 231.586C542.124 229.816 543.086 227.645 543.384 225.337L595.019 187.531Z" fill="#FFB6B6"/>
<path d="M610.947 88.7561C622.293 97.713 607.731 147.813 607.731 147.813C605.476 145.339 602.856 181.908 600.1 180.662C592.268 177.124 577.912 164.92 572.378 165.915C569.213 166.484 572.529 141.727 572.529 141.727C572.529 141.727 573.139 127.532 574.285 109.283C574.514 104.118 576.045 99.0948 578.737 94.6808C581.429 90.2668 585.194 86.6057 589.682 84.0382C589.682 84.0382 599.601 79.7993 610.947 88.7561Z" fill="#3F3D56"/>
<path d="M219.074 193.301L232.825 254.667L144.707 249.186L168.669 188.918L219.074 193.301Z" fill="#A0616A"/>
<path d="M204.401 476.529L214.299 476.528L219.008 438.349H204.399L204.401 476.529Z" fill="#A0616A"/>
<path d="M201.049 471.646L216.696 470.712V477.416L231.572 487.69C232.307 488.197 232.86 488.926 233.152 489.77C233.443 490.615 233.457 491.53 233.191 492.382C232.925 493.235 232.394 493.98 231.675 494.509C230.955 495.038 230.086 495.324 229.193 495.324H210.564L207.353 488.692L206.099 495.324H199.076L201.049 471.646Z" fill="#2F2E41"/>
<path d="M110.847 471.604L120.521 473.702L133.217 437.389L118.94 434.292L110.847 471.604Z" fill="#A0616A"/>
<path d="M108.607 466.122L124.096 468.526L122.675 475.078L135.035 488.272C135.646 488.924 136.032 489.753 136.138 490.64C136.243 491.527 136.063 492.424 135.622 493.201C135.182 493.978 134.505 494.593 133.689 494.958C132.874 495.323 131.964 495.417 131.091 495.228L112.886 491.278L111.154 484.117L108.523 490.332L101.659 488.843L108.607 466.122Z" fill="#2F2E41"/>
<path d="M235.075 305.982C228.128 344.16 226.391 360.645 226.391 360.645C226.391 360.645 231.602 366.718 228.128 370.191C224.655 373.665 228.128 380.602 228.128 380.602L220.318 464.769L214.031 463.75L198.886 461.315L193.423 460.432L196.897 381.475C196.897 381.475 193.423 374.528 195.16 372.792C196.897 371.055 193.423 360.645 193.423 360.645L189.086 278.215L162.182 368.455C162.182 368.455 164.792 371.928 162.182 374.528C159.582 377.129 154.382 390.149 154.382 390.149L138.383 446.131L137.024 450.885L128.681 449.323L119.599 447.615L117.931 447.305L114.962 446.742L113.05 446.383L112.4 446.266L109.257 445.675L110.208 441.454L110.702 439.232L124.237 379.118L124.547 377.73L124.877 376.265C124.877 376.265 123.141 371.928 125.741 369.318C126.502 368.523 127.057 367.554 127.36 366.496C127.662 365.438 127.703 364.322 127.478 363.245C127.392 363.154 127.315 363.057 127.245 362.954C126.938 362.532 126.726 362.049 126.624 361.537C126.391 360.451 126.595 358.927 128.351 357.171C128.845 356.646 129.26 356.051 129.583 355.405C132.222 350.409 133.551 339.824 133.551 339.824C133.551 339.824 135.899 255.987 143.583 243.18C143.991 242.511 152.148 229.659 152.575 229.397C161.249 224.196 228.825 231.379 228.825 231.379C228.825 231.379 232.918 242.375 233.103 243.52C234.102 249.952 240.964 273.596 235.075 305.982Z" fill="#2F2E41"/>
<path d="M214.541 104.043C214.541 104.043 216.004 96.4525 201.953 82.4019C194.514 79.9224 181.626 81.3675 177.158 82.4019C156.495 109.677 160.195 104.864 154.816 120.103C153.422 124.055 152.724 127.852 153.344 130.951C155.824 143.349 159.849 206.989 159.023 210.295C158.196 213.601 152.411 217.733 158.196 217.733C163.982 217.733 238.591 216.427 236.938 213.948C235.285 211.468 214.541 104.043 214.541 104.043Z" fill="#6C63FF"/>
<path d="M303.151 204.888C302.018 205.327 300.803 205.512 299.59 205.43C298.378 205.348 297.199 205.001 296.135 204.414C295.071 203.827 294.149 203.014 293.433 202.032C292.718 201.05 292.226 199.923 291.993 198.731L262.752 194.577L272.919 183.08L299.128 188.787C301.158 188.528 303.211 189.023 304.9 190.178C306.589 191.332 307.796 193.066 308.292 195.051C308.787 197.035 308.538 199.133 307.591 200.946C306.643 202.759 305.064 204.162 303.151 204.888L303.151 204.888Z" fill="#A0616A"/>
<path d="M179.438 99.1568C181.795 97.5828 184.473 96.8436 186.629 94.7419C194.5 100.41 195.079 91.1815 202.212 105.064C209.345 118.947 234.788 152.418 245.514 162.482C256.239 172.547 275.878 177.637 281.573 181.178C284.9 183.175 288.388 184.889 292.002 186.302C289.719 190.75 288.453 195.623 285.598 199.874C269.47 197.897 248.323 191.444 236.432 188.289C224.54 185.134 229.063 187.485 224.172 183.786C219.282 180.086 223.325 181.791 217.632 180.289C211.94 178.788 207.6 171.249 205.884 165.425C201.797 161.248 198.294 156.736 194.251 152.602C189.578 134.729 184.38 116.94 179.438 99.1568Z" fill="#6C63FF"/>
<path d="M197.902 71.8233C211.119 71.8233 221.835 61.1082 221.835 47.8905C221.835 34.6728 211.119 23.9578 197.902 23.9578C184.684 23.9578 173.969 34.6728 173.969 47.8905C173.969 61.1082 184.684 71.8233 197.902 71.8233Z" fill="#A0616A"/>
<path d="M213.892 91.6385C212.757 90.0185 204.276 73.9552 201.755 67.8806C201.496 69.1961 201.332 70.5286 201.265 71.8677L201.24 72.3667L200.745 72.4309C199.999 72.526 182.397 74.6625 173.237 64.2752C167.809 58.1224 166.578 48.8935 169.573 36.8395C169.029 36.7326 168.507 36.5315 168.031 36.2454C167.239 35.6971 166.576 34.9827 166.088 34.1518C165.601 33.321 165.3 32.3938 165.208 31.4349L164.7 31.5709C148.403 23.6406 162.444 0.441694 177.329 11.9757C178.635 11.6839 179.996 11.7622 181.26 12.2016C182.479 12.6974 183.54 13.5137 184.333 14.564C185.125 15.6144 185.619 16.8595 185.761 18.1675C193.452 14.1221 203.631 14.7804 208.896 17.8156C211.1 19.0867 212.366 20.6875 212.59 22.4733C218.809 22.8205 225.496 28.8776 225.496 37.4593V38.0569H224.899C222.397 38.1101 219.957 38.8428 217.84 40.1764C215.723 41.5101 214.008 43.3944 212.88 45.6278C211.351 48.3904 210.594 51.514 210.689 54.6702C210.784 57.8264 211.728 60.8988 213.42 63.5644C215.263 66.3918 216.521 69.5592 217.12 72.8802C217.719 76.2012 217.648 79.6086 216.91 82.9016L214.664 92.7415L213.892 91.6385Z" fill="#2F2E41"/>
<path d="M283.335 495.521C283.335 495.677 283.305 495.832 283.245 495.977C283.186 496.122 283.098 496.253 282.987 496.364C282.877 496.474 282.745 496.562 282.601 496.621C282.456 496.681 282.301 496.712 282.145 496.711H1.85498C1.53937 496.711 1.23669 496.586 1.01352 496.362C0.790351 496.139 0.664978 495.837 0.664978 495.521C0.664978 495.205 0.790351 494.903 1.01352 494.68C1.23669 494.456 1.53937 494.331 1.85498 494.331H282.145C282.301 494.331 282.456 494.361 282.601 494.421C282.746 494.48 282.877 494.568 282.987 494.679C283.098 494.789 283.186 494.921 283.245 495.065C283.305 495.21 283.335 495.365 283.335 495.521Z" fill="#CCCCCC"/>
<path d="M665.335 495.521C665.335 495.677 665.305 495.832 665.245 495.977C665.186 496.122 665.098 496.253 664.987 496.364C664.877 496.474 664.745 496.562 664.601 496.621C664.456 496.681 664.301 496.712 664.145 496.711H383.855C383.539 496.711 383.237 496.586 383.014 496.362C382.79 496.139 382.665 495.837 382.665 495.521C382.665 495.205 382.79 494.903 383.014 494.68C383.237 494.456 383.539 494.331 383.855 494.331H664.145C664.301 494.331 664.456 494.361 664.601 494.421C664.746 494.48 664.877 494.568 664.987 494.679C665.098 494.789 665.186 494.921 665.245 495.065C665.305 495.21 665.335 495.365 665.335 495.521Z" fill="#CCCCCC"/>
<path d="M321.951 409.759C327.8 409.759 332.541 405.018 332.541 399.169C332.541 393.32 327.8 388.578 321.951 388.578C316.102 388.578 311.36 393.32 311.36 399.169C311.36 405.018 316.102 409.759 321.951 409.759Z" fill="#E6E6E6"/>
<path d="M392.951 420.759C398.8 420.759 403.541 416.018 403.541 410.169C403.541 404.32 398.8 399.578 392.951 399.578C387.102 399.578 382.36 404.32 382.36 410.169C382.36 416.018 387.102 420.759 392.951 420.759Z" fill="#E6E6E6"/>
<path d="M463.951 407.759C469.8 407.759 474.541 403.018 474.541 397.169C474.541 391.32 469.8 386.578 463.951 386.578C458.102 386.578 453.36 391.32 453.36 397.169C453.36 403.018 458.102 407.759 463.951 407.759Z" fill="#E6E6E6"/>
</g>
<defs>
<clipPath id="clip0_232_464">
<rect width="664.67" height="498.947" fill="white" transform="translate(0.664978)"/>
</clipPath>
</defs>
</svg>
