<svg width="352" height="207" viewBox="0 0 352 207" fill="none" xmlns="http://www.w3.org/2000/svg">
<path d="M261.431 51.3758C280.191 68.8652 291.048 85.5609 309.266 104.827C327.505 123.973 353.126 145.568 350.906 161.666C348.687 177.764 318.65 188.244 288.982 195.415C259.121 202.427 229.629 206.131 198.018 206.706C166.406 207.28 132.653 204.845 104.253 194.998C76.0483 185.311 53.2394 167.97 36.32 150.186C19.4224 132.281 8.02468 113.614 2.99288 94.34C-2.23367 74.906 -1.3108 54.8262 12.6865 39.0929C26.4674 23.3207 53.0846 11.9772 84.8079 5.79934C116.337 -0.538443 153.166 -1.55064 184.685 7.10641C216.225 15.6424 242.887 33.9253 261.431 51.3758Z" fill="#BDC6FF"/>
</svg>