<svg width="255" height="200" viewBox="0 0 255 200" fill="none" xmlns="http://www.w3.org/2000/svg">
<path d="M250.65 136.292C242.699 148.99 219.209 156.519 198.242 167.406C177.088 178.186 158.611 192.173 136.839 197.092C115.067 202.011 90.1709 197.84 69.7115 188.182C49.4215 178.502 33.4168 163.487 19.7913 145.641C5.99642 127.819 -5.40167 107.295 4.79443 92.048C14.9905 76.8012 47.1023 66.656 69.5243 55.0439C91.9288 43.3021 104.795 29.9407 123.675 18.9386C142.556 7.9365 167.619 -0.729254 191.248 0.442251C215.064 1.72063 237.463 12.966 245.858 29.1393C254.253 45.3126 248.661 66.5436 249.744 86.0814C250.827 105.619 258.584 123.464 250.65 136.292Z" fill="#BAC3FF"/>
</svg>
